<?xml version="1.0" encoding="utf-8"?>
<!-- Generator: Adobe Illustrator 27.5.0, SVG Export Plug-In . SVG Version: 6.00 Build 0)  -->
<svg version="1.1" id="Calque_1" xmlns="http://www.w3.org/2000/svg" xmlns:xlink="http://www.w3.org/1999/xlink" x="0px" y="0px"
	 viewBox="0 0 384 512" style="enable-background:new 0 0 384 512;" xml:space="preserve">
<style type="text/css">
	.st0{
        fill:#FFFFFF;
        enable-background:new    ;}
	.st1{fill:#FFFFFF;}
</style>
<path class="st0" d="M267.3,238.5l-0.2-99.5c0-5.7-4.7-10.4-10.4-10.4l-31.2,0.1c-5.7,0-10.4-4.6-10.4-10.4
	c0-5.7,4.6-10.4,10.4-10.4l31.2-0.1c17.2,0,31.2,13.9,31.2,31.1l0.2,99.5l-10.4,10.4L267.3,238.5z"/>
<path class="st1" d="M228.8,214.7c-4,4.1-4,10.7,0,14.7l41.6,41.5c4.1,4,10.7,4,14.7,0l41.5-41.6c4-4.1,4-10.7,0-14.7
	c-4.1-4-10.7-4-14.7,0l-34.1,34.2l-34.3-34.1C239.4,210.7,232.8,210.7,228.8,214.7L228.8,214.7z"/>
<path class="st0" d="M144.6,296.8c0-16.9,13.8-30.7,30.7-30.7H252v61.4c0,8.5,6.9,15.3,15.3,15.3h61.4v69h-99.7
	c-16.9,0-30.7,13.8-30.7,30.7v69h-23c-16.9,0-30.7-13.8-30.7-30.7V296.8z"/>
<path class="st1" d="M328.7,342.8L252,266.1v61.4c0,8.5,6.9,15.3,15.3,15.3H328.7z M228.9,434.8c-4.2,0-7.7,3.5-7.7,7.7v38.4v23
	c0,4.2,3.5,7.7,7.7,7.7s7.7-3.5,7.7-7.7v-15.3h7.7c14.8,0,26.8-12,26.8-26.8s-12-26.8-26.8-26.8H228.9z M244.3,473.2h-7.7v-23h7.7
	c6.4,0,11.5,5.1,11.5,11.5C255.8,468.1,250.7,473.2,244.3,473.2z M290.3,434.8c-4.2,0-7.7,3.5-7.7,7.7v61.4c0,4.2,3.5,7.7,7.7,7.7
	h15.3c12.7,0,23-10.3,23-23v-30.7c0-12.7-10.3-23-23-23H290.3z M305.7,496.2H298v-46h7.7c4.2,0,7.7,3.5,7.7,7.7v30.7
	C313.3,492.8,309.9,496.2,305.7,496.2z M344,442.5v30.7v30.7c0,4.2,3.5,7.7,7.7,7.7s7.7-3.5,7.7-7.7v-23h15.3c4.2,0,7.7-3.5,7.7-7.7
	s-3.5-7.7-7.7-7.7h-15.3v-15.3h15.3c4.2,0,7.7-3.5,7.7-7.7s-3.5-7.7-7.7-7.7h-23C347.5,434.8,344,438.3,344,442.5z"/>
<path class="st0" d="M0.2,33.5c0-18.1,14.7-32.9,32.9-32.9h82.2v65.8c0,9.1,7.3,16.4,16.4,16.4h65.8v148c0,18.1-14.7,32.9-32.9,32.9
	H33.1c-18.1,0-32.9-14.7-32.9-32.9V33.5z M45.4,115.7c-9.1,0-16.4,7.3-16.4,16.4v82.2c0,9.1,7.3,16.4,16.4,16.4h106.9
	c9.1,0,16.4-7.3,16.4-16.4v-82.2c0-9.1-7.3-16.4-16.4-16.4H45.4z"/>
<path class="st1" d="M197.5,82.8L115.3,0.6v65.8c0,9.1,7.3,16.4,16.4,16.4H197.5z M45.4,115.7c-9.1,0-16.4,7.3-16.4,16.4v8.2v41.1
	v32.9c0,9.1,7.3,16.4,16.4,16.4h32.9h41.1h32.9c9.1,0,16.4-7.3,16.4-16.4v-32.9v-41.1v-8.2c0-9.1-7.3-16.4-16.4-16.4H45.4z
	 M45.4,173.2v-24.7h24.7v24.7H45.4z M86.5,173.2v-24.7h24.7v24.7H86.5z M127.6,173.2v-24.7h24.7v24.7H127.6z M127.6,189.6h24.7v24.7
	h-24.7V189.6z M111.2,189.6v24.7H86.5v-24.7H111.2z M70.1,189.6v24.7H45.4v-24.7H70.1z"/>
</svg>
