<?xml version="1.0" encoding="utf-8"?>
<!-- Generator: Adobe Illustrator 27.5.0, SVG Export Plug-In . SVG Version: 6.00 Build 0)  -->
<svg version="1.1" id="Calque_1" xmlns="http://www.w3.org/2000/svg" xmlns:xlink="http://www.w3.org/1999/xlink" x="0px" y="0px"
	 viewBox="0 0 1280 800" style="enable-background:new 0 0 1280 800;" xml:space="preserve">
<style type="text/css">
	.st0{
        fill:#FFFFFF;
        enable-background:new    ;}
	.st1{fill:#FFFFFF;}
</style>
<path class="st0" d="M783.1,203.2c0-35.3,28.7-64,64-64h160v128c0,17.7,14.3,32,32,32h128v144h-208c-35.3,0-64,28.7-64,64v144h-48
	c-35.3,0-64-28.7-64-64V203.2z"/>
<path class="st1" d="M1167.1,299.2l-160-160v128c0,17.7,14.3,32,32,32H1167.1z M959.1,491.2c-8.8,0-16,7.2-16,16v80v48
	c0,8.8,7.2,16,16,16s16-7.2,16-16v-32h16c30.9,0,56-25.1,56-56c0-30.9-25.1-56-56-56H959.1z M991.1,571.2h-16v-48h16
	c13.3,0,24,10.7,24,24S1004.4,571.2,991.1,571.2z M1087.1,491.2c-8.8,0-16,7.2-16,16v128c0,8.8,7.2,16,16,16h32
	c26.5,0,48-21.5,48-48v-64c0-26.5-21.5-48-48-48H1087.1z M1119.1,619.2h-16v-96h16c8.8,0,16,7.2,16,16v64
	C1135.1,612,1127.9,619.2,1119.1,619.2z M1199.1,507.2v64v64c0,8.8,7.2,16,16,16c8.8,0,16-7.2,16-16v-48h32c8.8,0,16-7.2,16-16
	s-7.2-16-16-16h-32v-32h32c8.8,0,16-7.2,16-16s-7.2-16-16-16h-48C1206.3,491.2,1199.1,498.4,1199.1,507.2z"/>
<path class="st0" d="M641.6,378.1H479.9c-9.3,0-16.9,7.7-16.9,17.1s7.5,17.1,16.9,17.1h161.7l16.9-17.1L641.6,378.1z"/>
<path class="st1" d="M693.9,383.1c6.6,6.6,6.6,17.2,0,23.8l-84.2,84.1c-6.6,6.6-17.3,6.6-23.8,0c-6.6-6.6-6.6-17.2,0-23.8l72.3-72.2
	L586,322.8c-6.6-6.6-6.6-17.2,0-23.8c6.6-6.6,17.3-6.6,23.8,0L693.9,383.1L693.9,383.1z"/>
<path class="st0" d="M0.3,202.5c0-35.3,28.7-64,64-64h160v128c0,17.7,14.3,32,32,32h128v288c0,35.3-28.7,64-64,64h-256
	c-35.3,0-64-28.7-64-64V202.5z M112.3,394.5c-8.8,0-16,7.2-16,16s7.2,16,16,16h160c8.8,0,16-7.2,16-16s-7.2-16-16-16H112.3z
	 M112.3,458.5c-8.8,0-16,7.2-16,16s7.2,16,16,16h160c8.8,0,16-7.2,16-16s-7.2-16-16-16H112.3z M112.3,522.5c-8.8,0-16,7.2-16,16
	s7.2,16,16,16h160c8.8,0,16-7.2,16-16s-7.2-16-16-16H112.3z"/>
<path class="st1" d="M384.3,298.5l-160-160v128c0,17.7,14.3,32,32,32H384.3z M112.3,394.5c-8.8,0-16,7.2-16,16s7.2,16,16,16h160
	c8.8,0,16-7.2,16-16s-7.2-16-16-16H112.3z M112.3,458.5c-8.8,0-16,7.2-16,16s7.2,16,16,16h160c8.8,0,16-7.2,16-16s-7.2-16-16-16
	H112.3z M112.3,522.5c-8.8,0-16,7.2-16,16s7.2,16,16,16h160c8.8,0,16-7.2,16-16s-7.2-16-16-16H112.3z"/>
</svg>
