<?xml version="1.0" encoding="utf-8"?>
<!-- Generator: Adobe Illustrator 27.5.0, SVG Export Plug-In . SVG Version: 6.00 Build 0)  -->
<svg version="1.1" id="Calque_1" xmlns="http://www.w3.org/2000/svg" xmlns:xlink="http://www.w3.org/1999/xlink" x="0px" y="0px"
	 viewBox="0 0 384 512" style="enable-background:new 0 0 384 512;" xml:space="preserve">
<style type="text/css">
	.st0{opacity:0.4;
		fill:#009EE2;
		enable-background:new    ;}
	.st1{fill:#009EE2;}
</style>
<path class="st0" d="M58.5,34.7c0.1-0.4,0.2-0.8,0.2-1.2H33.3c-18.1,0-32.9,14.7-32.9,32.9v164.3c0,18.1,14.7,32.9,32.9,32.9h131.4
	c18.1,0,32.9-14.7,32.9-32.9V66.4c0-18.1-14.7-32.9-32.9-32.9h-25.5c0.1,0.4,0.2,0.8,0.2,1.2c9.9,3.2,17,12.5,17,23.5v12.3
	c0,6.8-5.5,12.3-12.3,12.3H99H53.8c-6.8,0-12.3-5.5-12.3-12.3V58.2C41.5,47.3,48.6,38,58.5,34.7z M37.4,140.3
	c0-6.8,5.5-12.3,12.3-12.3S62,133.5,62,140.3s-5.5,12.3-12.3,12.3S37.4,147.1,37.4,140.3z M90.8,132.1h65.7c4.5,0,8.2,3.7,8.2,8.2
	s-3.7,8.2-8.2,8.2H90.8c-4.5,0-8.2-3.7-8.2-8.2S86.3,132.1,90.8,132.1z M37.4,189.6c0-6.8,5.5-12.3,12.3-12.3S62,182.8,62,189.6
	s-5.5,12.3-12.3,12.3S37.4,196.4,37.4,189.6z M82.6,189.6c0-4.5,3.7-8.2,8.2-8.2h65.7c4.5,0,8.2,3.7,8.2,8.2s-3.7,8.2-8.2,8.2H90.8
	C86.3,197.8,82.6,194.1,82.6,189.6z"/>
<path class="st1" d="M58.5,34.7c3.3-19.3,20.2-34,40.5-34s37.2,14.7,40.5,34c9.9,3.2,17,12.5,17,23.5v12.3c0,6.8-5.5,12.3-12.3,12.3
	H99H53.8c-6.8,0-12.3-5.5-12.3-12.3V58.2C41.5,47.3,48.6,38,58.5,34.7z M111.3,41.8c0-6.8-5.5-12.3-12.3-12.3
	c-6.8,0-12.3,5.5-12.3,12.3S92.2,54.1,99,54.1C105.8,54.1,111.3,48.6,111.3,41.8z M37.4,140.3c0-6.8,5.5-12.3,12.3-12.3
	S62,133.5,62,140.3s-5.5,12.3-12.3,12.3S37.4,147.1,37.4,140.3z M37.4,189.6c0-6.8,5.5-12.3,12.3-12.3S62,182.8,62,189.6
	s-5.5,12.3-12.3,12.3S37.4,196.4,37.4,189.6z"/>
<path class="st0" d="M144.8,296.8c0-16.9,13.7-30.6,30.6-30.6h76.6v61.3c0,8.5,6.8,15.3,15.3,15.3h61.3v69h-99.6
	c-16.9,0-30.6,13.7-30.6,30.6v69h-23c-16.9,0-30.6-13.7-30.6-30.6V296.8z"/>
<path class="st1" d="M328.7,342.8l-76.6-76.6v61.3c0,8.5,6.8,15.3,15.3,15.3H328.7z M229.1,434.7c-4.2,0-7.7,3.4-7.7,7.7v38.3v23
	c0,4.2,3.4,7.7,7.7,7.7c4.2,0,7.7-3.4,7.7-7.7v-15.3h7.7c14.8,0,26.8-12,26.8-26.8c0-14.8-12-26.8-26.8-26.8H229.1z M244.4,473h-7.7
	v-23h7.7c6.4,0,11.5,5.1,11.5,11.5C255.9,467.9,250.8,473,244.4,473z M290.4,434.7c-4.2,0-7.7,3.4-7.7,7.7v61.3
	c0,4.2,3.4,7.7,7.7,7.7h15.3c12.7,0,23-10.3,23-23v-30.6c0-12.7-10.3-23-23-23H290.4z M305.7,496h-7.7v-46h7.7
	c4.2,0,7.7,3.4,7.7,7.7v30.6C313.4,492.6,310,496,305.7,496z M344.1,442.4V473v30.6c0,4.2,3.4,7.7,7.7,7.7s7.7-3.4,7.7-7.7v-23h15.3
	c4.2,0,7.7-3.4,7.7-7.7s-3.4-7.7-7.7-7.7h-15.3v-15.3h15.3c4.2,0,7.7-3.4,7.7-7.7s-3.4-7.7-7.7-7.7h-23
	C347.5,434.7,344.1,438.2,344.1,442.4z"/>
<path class="st0" d="M267.1,238v-99.4c0-5.7-4.6-10.4-10.4-10.4h-31.1c-5.7,0-10.4-4.6-10.4-10.4c0-5.7,4.6-10.4,10.4-10.4h31.1
	c17.2,0,31.1,13.9,31.1,31.1V238l-10.4,10.4L267.1,238z"/>
<path class="st1" d="M228.7,214.3c-4,4-4,10.6,0,14.7l41.5,41.5c4,4,10.6,4,14.7,0l41.5-41.5c4-4,4-10.6,0-14.7s-10.6-4-14.7,0
	l-34.1,34.1l-34.1-34.1C239.3,210.2,232.7,210.2,228.7,214.3L228.7,214.3z"/>
</svg>
