<svg id="Layer_1" data-name="Layer 1" xmlns="http://www.w3.org/2000/svg" xmlns:xlink="http://www.w3.org/1999/xlink" viewBox="0 0 1684.29 1409.48"><defs><style>.cls-1,.cls-10,.cls-11,.cls-12,.cls-13,.cls-14,.cls-15,.cls-16,.cls-17,.cls-18,.cls-19,.cls-2,.cls-20,.cls-21,.cls-22,.cls-23,.cls-24,.cls-25,.cls-26,.cls-27,.cls-28,.cls-29,.cls-3,.cls-30,.cls-31,.cls-32,.cls-33,.cls-34,.cls-35,.cls-36,.cls-4,.cls-5,.cls-6,.cls-7,.cls-8,.cls-9{fill-rule:evenodd;}.cls-1{fill:url(#Новый_образец_градиента_1);}.cls-2{fill:url(#Новый_образец_градиента_1-2);}.cls-3{fill:url(#Новый_образец_градиента_1-3);}.cls-4{fill:url(#Новый_образец_градиента_1-4);}.cls-5{fill:url(#Новый_образец_градиента_1-5);}.cls-6{fill:url(#Новый_образец_градиента_1-6);}.cls-7{fill:url(#Новый_образец_градиента_1-7);}.cls-8{fill:url(#Новый_образец_градиента_1-8);}.cls-9{fill:url(#Новый_образец_градиента_1-9);}.cls-10{fill:url(#Новый_образец_градиента_1-10);}.cls-11{fill:url(#Новый_образец_градиента_1-11);}.cls-12{fill:url(#Новый_образец_градиента_1-12);}.cls-13{fill:url(#Новый_образец_градиента_1-13);}.cls-14{fill:url(#Новый_образец_градиента_1-14);}.cls-15{fill:url(#Новый_образец_градиента_1-15);}.cls-16{fill:url(#Новый_образец_градиента_1-16);}.cls-17{fill:url(#Новый_образец_градиента_1-17);}.cls-18{fill:url(#Новый_образец_градиента_1-18);}.cls-19{fill:url(#Новый_образец_градиента_1-19);}.cls-20{fill:url(#Новый_образец_градиента_1-20);}.cls-21{fill:url(#Новый_образец_градиента_1-21);}.cls-22{fill:url(#Новый_образец_градиента_1-22);}.cls-23{fill:url(#Новый_образец_градиента_1-23);}.cls-24{fill:url(#Новый_образец_градиента_1-24);}.cls-25{fill:url(#Новый_образец_градиента_1-25);}.cls-26{fill:url(#Новый_образец_градиента_1-26);}.cls-27{fill:url(#Новый_образец_градиента_1-27);}.cls-28{fill:url(#Новый_образец_градиента_1-28);}.cls-29{fill:url(#Новый_образец_градиента_1-29);}.cls-30{fill:url(#Новый_образец_градиента_1-30);}.cls-31{fill:url(#Новый_образец_градиента_1-31);}.cls-32{fill:url(#Новый_образец_градиента_1-32);}.cls-33{fill:url(#Новый_образец_градиента_1-33);}.cls-34{fill:url(#Новый_образец_градиента_1-34);}.cls-35{fill:url(#Новый_образец_градиента_1-35);}.cls-36{fill:url(#Новый_образец_градиента_1-36);}</style><linearGradient id="Новый_образец_градиента_1" x1="1020.17" y1="1267.17" x2="758.29" y2="86.13" gradientUnits="userSpaceOnUse"><stop offset="0" stop-color="#00adee"/><stop offset="0.13" stop-color="#23a3e3"/><stop offset="0.45" stop-color="#718ccb"/><stop offset="0.71" stop-color="#aa7cb9"/><stop offset="0.9" stop-color="#cd72ae"/><stop offset="1" stop-color="#da6eaa"/></linearGradient><linearGradient id="Новый_образец_градиента_1-2" x1="952.88" y1="1282.09" x2="690.99" y2="101.05" xlink:href="#Новый_образец_градиента_1"/><linearGradient id="Новый_образец_градиента_1-3" x1="846.97" y1="1305.58" x2="585.08" y2="124.53" xlink:href="#Новый_образец_градиента_1"/><linearGradient id="Новый_образец_градиента_1-4" x1="861.03" y1="1302.46" x2="599.15" y2="121.41" xlink:href="#Новый_образец_градиента_1"/><linearGradient id="Новый_образец_градиента_1-5" x1="746.99" y1="1327.75" x2="485.1" y2="146.7" xlink:href="#Новый_образец_градиента_1"/><linearGradient id="Новый_образец_градиента_1-6" x1="601.81" y1="1359.94" x2="339.93" y2="178.89" xlink:href="#Новый_образец_градиента_1"/><linearGradient id="Новый_образец_градиента_1-7" x1="707.63" y1="1336.47" x2="445.75" y2="155.43" xlink:href="#Новый_образец_градиента_1"/><linearGradient id="Новый_образец_градиента_1-8" x1="570.69" y1="1366.84" x2="308.81" y2="185.79" xlink:href="#Новый_образец_градиента_1"/><linearGradient id="Новый_образец_градиента_1-9" x1="411.12" y1="1402.22" x2="149.23" y2="221.18" xlink:href="#Новый_образец_градиента_1"/><linearGradient id="Новый_образец_градиента_1-10" x1="587.23" y1="1363.17" x2="325.35" y2="182.13" xlink:href="#Новый_образец_градиента_1"/><linearGradient id="Новый_образец_градиента_1-11" x1="451.3" y1="1393.31" x2="189.42" y2="212.27" xlink:href="#Новый_образец_градиента_1"/><linearGradient id="Новый_образец_градиента_1-12" x1="297.1" y1="1427.5" x2="35.21" y2="246.46" xlink:href="#Новый_образец_градиента_1"/><linearGradient id="Новый_образец_градиента_1-13" x1="520.79" y1="1377.9" x2="258.91" y2="196.86" xlink:href="#Новый_образец_градиента_1"/><linearGradient id="Новый_образец_градиента_1-14" x1="412.94" y1="1401.82" x2="151.05" y2="220.77" xlink:href="#Новый_образец_градиента_1"/><linearGradient id="Новый_образец_градиента_1-15" x1="302.5" y1="1426.3" x2="40.62" y2="245.26" xlink:href="#Новый_образец_градиента_1"/><linearGradient id="Новый_образец_градиента_1-16" x1="530.99" y1="1375.64" x2="269.11" y2="194.6" xlink:href="#Новый_образец_градиента_1"/><linearGradient id="Новый_образец_градиента_1-17" x1="488.55" y1="1385.05" x2="226.66" y2="204.01" xlink:href="#Новый_образец_градиента_1"/><linearGradient id="Новый_образец_градиента_1-18" x1="486.93" y1="1385.41" x2="225.05" y2="204.37" xlink:href="#Новый_образец_градиента_1"/><linearGradient id="Новый_образец_градиента_1-19" x1="634.26" y1="1352.74" x2="372.38" y2="171.7" xlink:href="#Новый_образец_градиента_1"/><linearGradient id="Новый_образец_градиента_1-20" x1="696.23" y1="1339" x2="434.35" y2="157.96" xlink:href="#Новый_образец_градиента_1"/><linearGradient id="Новый_образец_градиента_1-21" x1="845.26" y1="1305.95" x2="583.38" y2="124.91" xlink:href="#Новый_образец_градиента_1"/><linearGradient id="Новый_образец_градиента_1-22" x1="814.25" y1="1312.83" x2="552.36" y2="131.79" xlink:href="#Новый_образец_градиента_1"/><linearGradient id="Новый_образец_градиента_1-23" x1="982.02" y1="1275.63" x2="720.14" y2="94.59" xlink:href="#Новый_образец_градиента_1"/><linearGradient id="Новый_образец_градиента_1-24" x1="1259.49" y1="1214.1" x2="997.6" y2="33.06" xlink:href="#Новый_образец_градиента_1"/><linearGradient id="Новый_образец_градиента_1-25" x1="1017.85" y1="1267.68" x2="755.96" y2="86.64" xlink:href="#Новый_образец_градиента_1"/><linearGradient id="Новый_образец_градиента_1-26" x1="1242.46" y1="1217.88" x2="980.58" y2="36.84" xlink:href="#Новый_образец_градиента_1"/><linearGradient id="Новый_образец_градиента_1-27" x1="1538.86" y1="1152.16" x2="1276.98" y2="-28.89" xlink:href="#Новый_образец_градиента_1"/><linearGradient id="Новый_образец_градиента_1-28" x1="1170.57" y1="1233.82" x2="908.68" y2="52.78" xlink:href="#Новый_образец_градиента_1"/><linearGradient id="Новый_образец_градиента_1-29" x1="1358.9" y1="1192.06" x2="1097.01" y2="11.02" xlink:href="#Новый_образец_градиента_1"/><linearGradient id="Новый_образец_градиента_1-30" x1="1550.17" y1="1149.65" x2="1288.29" y2="-31.39" xlink:href="#Новый_образец_градиента_1"/><linearGradient id="Новый_образец_градиента_1-31" x1="1213.11" y1="1224.39" x2="951.22" y2="43.34" xlink:href="#Новый_образец_градиента_1"/><linearGradient id="Новый_образец_градиента_1-32" x1="1311.09" y1="1202.66" x2="1049.2" y2="21.62" xlink:href="#Новый_образец_градиента_1"/><linearGradient id="Новый_образец_градиента_1-33" x1="1371.75" y1="1189.21" x2="1109.87" y2="8.17" xlink:href="#Новый_образец_градиента_1"/><linearGradient id="Новый_образец_градиента_1-34" x1="1150.07" y1="1238.37" x2="888.18" y2="57.32" xlink:href="#Новый_образец_градиента_1"/><linearGradient id="Новый_образец_градиента_1-35" x1="1156.9" y1="1236.85" x2="895.02" y2="55.81" xlink:href="#Новый_образец_градиента_1"/><linearGradient id="Новый_образец_градиента_1-36" x1="1118.18" y1="1245.44" x2="856.3" y2="64.39" xlink:href="#Новый_образец_градиента_1"/></defs><path class="cls-1" d="M754,296.61c17.06-11.52,36.76-25,53.59-36.43a10.41,10.41,0,0,1,13.32,1.29c13.45,13.64,27.36,27.6,41.58,41.87A10.51,10.51,0,0,1,861,319.47c-18,12.08-38.83,26-56.43,37.79a10.5,10.5,0,0,1-13.64-1.74q-19.82-22-38.8-43.23A10.46,10.46,0,0,1,754,296.61Z"/><path class="cls-2" d="M652.63,243.24c16.92-16.73,36.27-35.9,52.41-51.86a10.44,10.44,0,0,1,11.29-2.27q34.47,14,70.9,28.93a10.53,10.53,0,0,1,3.49,17.16c-17.65,17.64-38,37.92-55,54.92a10.55,10.55,0,0,1-11.91,2.07c-23.48-11-46.19-21.63-68.32-32A10.47,10.47,0,0,1,652.63,243.24Z"/><path class="cls-3" d="M518.2,210.74q26.06-32.42,52-64.39a10.39,10.39,0,0,1,9.89-3.72q46.27,8,95.9,16.4a10.5,10.5,0,0,1,6.54,16.83q-27,34.19-54.38,69a10.57,10.57,0,0,1-10.57,3.77c-32.37-7.17-63.5-14.17-93.61-21A10.5,10.5,0,0,1,518.2,210.74Z"/><path class="cls-4" d="M592.34,345.74c9.46-13.55,19.94-28.56,29-41.42a10.23,10.23,0,0,1,10.25-4.19q31,5.73,63.29,11.67a10.32,10.32,0,0,1,6.7,15.94c-9.63,14.11-20.34,29.87-29.7,43.41a10.39,10.39,0,0,1-10.75,4.2q-31.9-6.94-62.55-13.65A10.29,10.29,0,0,1,592.34,345.74Z"/><path class="cls-5" d="M460.32,350.3c7.11-16.68,15-35.08,21.68-50.57a10.39,10.39,0,0,1,8.58-6.28q42.78-4.14,87.66-8.4a10.51,10.51,0,0,1,10.81,14.29c-6.82,17.18-14.5,36.37-21.08,53a10.55,10.55,0,0,1-9.09,6.61q-45.3,3.06-88.28,5.89A10.47,10.47,0,0,1,460.32,350.3Z"/><path class="cls-6" d="M302.35,384.24q9-31.12,17.59-61.26a10.4,10.4,0,0,1,7.5-7.25Q381,302.3,437.55,288.29a10.48,10.48,0,0,1,12.76,12.61q-7.6,31.17-15.43,63.48a10.6,10.6,0,0,1-7.93,7.81q-57.57,12.94-112.25,25.22A10.48,10.48,0,0,1,302.35,384.24Z"/><path class="cls-7" d="M454.82,447.86c1.91-12.3,3.89-25.43,5.73-36.85a10.51,10.51,0,0,1,7.75-8.55q36-9.36,73.28-19a10.58,10.58,0,0,1,13.18,11.49c-1.51,12.37-3.15,25.86-4.6,37.81a10.6,10.6,0,0,1-8,9c-25.21,6.09-49.95,12.08-74.38,18A10.55,10.55,0,0,1,454.82,447.86Z"/><path class="cls-8" d="M317.09,512.44c-1.59-14.58-3.3-30.35-4.8-43.85A10.53,10.53,0,0,1,318,458q45.19-22.71,91.7-45.82a10.59,10.59,0,0,1,15.17,7.67c2.39,14.07,5,29.83,7.4,43.81a10.59,10.59,0,0,1-5.85,11.28q-47.82,23.13-94.26,45.86A10.53,10.53,0,0,1,317.09,512.44Z"/><path class="cls-9" d="M159.65,614.88c-4.62-18.45-9-36.46-13.39-54.13a10.51,10.51,0,0,1,4.38-11.29Q205.77,512.62,262.28,475a10.58,10.58,0,0,1,15.86,5.3q8.87,25.47,18.27,52a10.65,10.65,0,0,1-4.19,12.44q-59.09,38.67-116.5,76.46A10.59,10.59,0,0,1,159.65,614.88Z"/><path class="cls-10" d="M367.12,588.84c-4.67-9.64-9.78-20-14.33-29.29a10.53,10.53,0,0,1,3.43-13.31q35.14-24.56,70.61-49.31a10.6,10.6,0,0,1,15.27,3.44c5.19,9.14,10.94,19.22,16.19,28.44a10.55,10.55,0,0,1-3.19,13.92q-36.32,25.08-72.46,50.2A10.56,10.56,0,0,1,367.12,588.84Z"/><path class="cls-11" d="M251.68,708.29c-10.3-10.65-21.57-22.5-31.39-32.7a10.57,10.57,0,0,1,0-14.66q39.81-41.43,79.53-82.43a10.54,10.54,0,0,1,14.53-.61c10.67,9.3,22.9,20,34,29.65a10.58,10.58,0,0,1,.65,15.31q-41.15,42.71-82.14,85.38A10.57,10.57,0,0,1,251.68,708.29Z"/><path class="cls-12" d="M124.5,878.49C107.23,865,90.43,852,74.14,839.22a10.57,10.57,0,0,1-1.84-14.74Q120,761.78,167,700.3a10.51,10.51,0,0,1,13.9-2.58q26,16,53.36,32.87a10.6,10.6,0,0,1,2.95,15.34q-48.28,64.37-97.63,130.55A10.65,10.65,0,0,1,124.5,878.49Z"/><path class="cls-13" d="M355,741.3c-11.51-5.41-24.34-11.38-35.83-16.72A10.6,10.6,0,0,1,314.9,709q25.55-37.41,50.76-74.16A10.49,10.49,0,0,1,378.25,631c11.41,4.54,24.47,9.71,36.39,14.47a10.55,10.55,0,0,1,4.88,15.69Q394.1,699,368.26,737.57A10.57,10.57,0,0,1,355,741.3Z"/><path class="cls-14" d="M292.42,900.92c-19.71-3.23-42.42-6.91-62-10a10.6,10.6,0,0,1-8.12-14.48q23.34-57.23,45.94-111.93A10.54,10.54,0,0,1,279,758c18.72,1.81,41.07,4,61.14,5.94A10.54,10.54,0,0,1,349,778.28c-14.71,37.85-29.65,76.42-45,116A10.6,10.6,0,0,1,292.42,900.92Z"/><path class="cls-15" d="M242.19,1127.93l-96.63-3.29a10.59,10.59,0,0,1-9.85-13.26q22.78-88.28,44.53-170.54A10.47,10.47,0,0,1,190,933q44.66-2,91.49-3.87A10.59,10.59,0,0,1,292.24,942q-19.2,85.45-39.31,177.62A10.66,10.66,0,0,1,242.19,1127.93Z"/><path class="cls-16" d="M431.26,868.41c-18.1,2.19-39,4.81-57.12,7.06a10.6,10.6,0,0,1-11.74-12.15q6.84-44.58,13.69-87.48a10.54,10.54,0,0,1,8.82-8.77c16.88-2.6,36.95-5.74,54.8-8.55a10.55,10.55,0,0,1,12.14,11.76c-3.74,29.05-7.58,58.63-11.39,88.91A10.61,10.61,0,0,1,431.26,868.41Z"/><path class="cls-17" d="M457.25,1040.57c-27.63,10.21-60.26,22.31-87.54,32.41a10.58,10.58,0,0,1-14.14-8.72c-5.24-43.62-10-85.68-14.66-126.2a10.52,10.52,0,0,1,6.57-11c24.93-10,55.3-22.25,81.51-32.91a10.52,10.52,0,0,1,14.39,8.11c6.44,40.66,13.39,82.76,20.62,126.6A10.62,10.62,0,0,1,457.25,1040.57Z"/><path class="cls-18" d="M545.28,1281.32c-42.72,23.47-85,46.77-126.88,69.51a10.61,10.61,0,0,1-15.19-6.35q-31-103.79-58-196a10.49,10.49,0,0,1,4.87-12.07q56.7-32.68,114.16-66a10.56,10.56,0,0,1,15.24,5.47c22,60.24,45.42,124.36,70.65,192.44A10.63,10.63,0,0,1,545.28,1281.32Z"/><path class="cls-19" d="M591.69,931.11c-20.22,13.32-44,29.07-64.23,42.25a10.58,10.58,0,0,1-15.32-4.42q-19.9-42.18-38.75-82a10.5,10.5,0,0,1,3.67-13.27c18.82-12.57,41.17-27.61,60.32-40.37a10.52,10.52,0,0,1,15.17,3.84q20.6,39,42.59,80.11A10.58,10.58,0,0,1,591.69,931.11Z"/><path class="cls-20" d="M728.69,1063.68c-24.47,26.79-54.37,59.54-78.86,86.81a10.6,10.6,0,0,1-15.56.15q-52.18-55.12-99.71-105.39a10.51,10.51,0,0,1-.08-14.4c23-24.9,50.72-55,73.77-79.77a10.53,10.53,0,0,1,14.91-.55c33.43,31.13,68.27,64,104.9,98.28A10.59,10.59,0,0,1,728.69,1063.68Z"/><path class="cls-21" d="M979.92,1221.25c-30,50.87-59.74,102.67-90,155.2a10.64,10.64,0,0,1-15.54,3.2c-70.86-52.78-137.17-101.82-199.27-148a10.56,10.56,0,0,1-2.61-14.1q43-68.82,85.32-135.83a10.52,10.52,0,0,1,14.55-3.29q95.37,60.43,204,128.47A10.59,10.59,0,0,1,979.92,1221.25Z"/><path class="cls-22" d="M801,895.47c-13.06,22.5-28.2,49.36-41.19,71.87A10.52,10.52,0,0,1,746,971.48c-33.12-16.38-65.2-32.59-96.24-48.1a10.42,10.42,0,0,1-4.26-14.75c12.82-21.25,27.69-46.33,40.1-67.23a10.43,10.43,0,0,1,13.28-4.2c31.47,14.19,63.83,28.51,97.22,43.43A10.51,10.51,0,0,1,801,895.47Z"/><path class="cls-23" d="M1022.47,928c-6.86,35.75-15.21,79.89-22,116.92a10.53,10.53,0,0,1-12.28,8.41c-60.66-11.22-118.56-22.14-174.43-32.21a10.44,10.44,0,0,1-8.31-12.72c8.17-34.6,18.13-75.31,26-108.22a10.42,10.42,0,0,1,11.58-7.92c54.53,7.48,111.23,15.24,170.47,23.39A10.51,10.51,0,0,1,1022.47,928Z"/><path class="cls-24" d="M1358.71,920.31q9.66,84,20.11,174.25a10.56,10.56,0,0,1-10.79,11.73q-153-4.76-290.72-8.66a10.5,10.5,0,0,1-10.15-10.24q-2.31-83.37-4.27-160.88a10.42,10.42,0,0,1,10.25-10.72q130.41-2.37,274.94-4.73A10.5,10.5,0,0,1,1358.71,920.31Z"/><path class="cls-25" d="M986.89,758.13c1.63,23.25,3.7,51,5.42,75.11a10.54,10.54,0,0,1-9.51,11.19c-44,4.23-86.93,8.22-128.8,12.33a10.44,10.44,0,0,1-11.47-10.24c-.38-23.3-.88-50.12-1.2-72.34a10.44,10.44,0,0,1,9.18-10.53c40.65-5,82.09-10,124.62-15.16A10.49,10.49,0,0,1,986.89,758.13Z"/><path class="cls-26" d="M1209.43,676.44c16,28.79,35.93,64.74,52.85,95.81a10.5,10.5,0,0,1-5.87,14.94q-92.52,31.54-181.36,62.25a10.46,10.46,0,0,1-13-5.68c-13.51-30.54-29.37-66.3-42.52-95.28a10.44,10.44,0,0,1,5.93-14.14c55.9-20.53,112.81-41.43,171.16-62.64A10.52,10.52,0,0,1,1209.43,676.44Z"/><path class="cls-27" d="M1483.27,528.41c39.34,35.24,81.13,72,124.6,110.52a10.54,10.54,0,0,1-2.26,17.29c-82.75,41.43-163.52,81.9-242.49,122.3a10.51,10.51,0,0,1-12.56-2.34Q1296,715.9,1246.4,660.68a10.45,10.45,0,0,1,2.89-16.23q108.56-57.71,222.1-117.47A10.49,10.49,0,0,1,1483.27,528.41Z"/><path class="cls-28" d="M1072.87,569.68c15.13,15.39,33.54,33.93,49.48,50.39a10.47,10.47,0,0,1-2.08,16.2q-55,33.91-109.4,67.89a10.47,10.47,0,0,1-13.52-2.11c-14.19-16.7-30.74-36-44.53-52.33a10.46,10.46,0,0,1,2.42-15.6l104.57-65.94A10.46,10.46,0,0,1,1072.87,569.68Z"/><path class="cls-29" d="M1214.56,424c29.55,12.71,67.08,28.86,99.76,42.9a10.46,10.46,0,0,1,3.35,16.93q-55.38,56.9-111,114.32a10.45,10.45,0,0,1-12.3,2.06c-29.91-15.37-65.39-33.69-94.34-48.63a10.51,10.51,0,0,1-2.72-16.62q52.68-54.72,105.59-108.65A10.48,10.48,0,0,1,1214.56,424Z"/><path class="cls-30" d="M1343.18,233.6q74,12.14,154.27,25.3a10.5,10.5,0,0,1,7.13,16.12q-51.37,77.76-103.64,157.39a10.6,10.6,0,0,1-11.26,4.46q-78.65-18.74-151.2-36.19a10.49,10.49,0,0,1-6.13-16.16q51-74.44,100.53-146.52A10.4,10.4,0,0,1,1343.18,233.6Z"/><path class="cls-31" d="M1036.82,406.28c21.73,4.29,48.36,9.57,71.76,14.32a10.47,10.47,0,0,1,6.93,15.65c-17.16,28.54-34.64,57.41-52.12,86.58a10.5,10.5,0,0,1-11.52,4.8c-22.55-5.59-48.92-12.12-71.42-17.81a10.48,10.48,0,0,1-6.28-15.75c17.5-27.9,34.65-55.63,51.71-83.05A10.47,10.47,0,0,1,1036.82,406.28Z"/><path class="cls-32" d="M1074.38,260.51c31.64-2.49,71-5.33,104.87-7.9a10.45,10.45,0,0,1,11,12.56c-7.25,34.85-14.7,70.39-22,106.72a10.47,10.47,0,0,1-9.86,8.45c-34.32,1.26-74.77,2.57-108.1,3.83a10.49,10.49,0,0,1-10.53-13.05q12.93-52.49,25.24-102.68A10.45,10.45,0,0,1,1074.38,260.51Z"/><path class="cls-33" d="M1074.64,102.64q63.55-15.76,130.26-32.22a10.49,10.49,0,0,1,13,9.41q3.91,57.37,8.31,118.52a10.59,10.59,0,0,1-8.39,11.08Q1146.67,224,1079.1,238a10.49,10.49,0,0,1-12.57-10.34q0-59.37.18-114.93A10.39,10.39,0,0,1,1074.64,102.64Z"/><path class="cls-34" d="M914.1,313.24c21.92-5.36,48.28-11.93,71.31-17.47a10.45,10.45,0,0,1,12.9,9.53c1.4,23.11,2.8,46.75,4.4,70.9a10.5,10.5,0,0,1-8.22,11c-23.48,5.08-50.94,11.08-74.19,16.14a10.49,10.49,0,0,1-12.69-10.08c-.5-23.7-1-46.84-1.48-69.6A10.43,10.43,0,0,1,914.1,313.24Z"/><path class="cls-35" d="M868.09,206.44c26-12.33,57.32-27.3,83.76-40a10.44,10.44,0,0,1,13.68,4.37c12.32,22.31,25.22,45.39,38.52,69.13a10.51,10.51,0,0,1-4.75,14.7c-28.37,13-61.76,28.11-89.39,40.72a10.51,10.51,0,0,1-13.85-5.13c-11.32-24.08-22.3-47.31-32.95-69.9A10.45,10.45,0,0,1,868.09,206.44Z"/><path class="cls-36" d="M783.8,109q45.51-29,91.85-58.66a10.46,10.46,0,0,1,12.94,1.24q31.89,30.87,66.62,63.86A10.54,10.54,0,0,1,953.59,132q-49.9,31.17-99.08,61.8a10.53,10.53,0,0,1-13.4-2c-20.67-23.2-40.43-45.53-59.51-67.06A10.45,10.45,0,0,1,783.8,109Z"/></svg>