<?xml version="1.0" encoding="utf-8"?>
<!-- Generator: Adobe Illustrator 27.5.0, SVG Export Plug-In . SVG Version: 6.00 Build 0)  -->
<svg version="1.1" id="Calque_1" xmlns="http://www.w3.org/2000/svg" xmlns:xlink="http://www.w3.org/1999/xlink" x="0px" y="0px"
	 viewBox="0 0 1280 800" style="enable-background:new 0 0 1280 800;" xml:space="preserve">
<style type="text/css">
	.st0{opacity:0.4;fill:#DC6BA5;enable-background:new    ;}
	.st1{fill:#DC6BA5;}
</style>
<path class="st0" d="M641.3,378.2H480.1c-9.3,0-16.8,7.5-16.8,16.8s7.5,16.8,16.8,16.8h161.3l16.8-16.8L641.3,378.2z"/>
<path class="st1" d="M693.9,383.1c6.6,6.6,6.6,17.2,0,23.8l-84.1,84.1c-6.6,6.6-17.2,6.6-23.8,0c-6.6-6.6-6.6-17.2,0-23.8l72.2-72.2
	L586,322.8c-6.6-6.6-6.6-17.2,0-23.8c6.6-6.6,17.2-6.6,23.8,0L693.9,383.1L693.9,383.1z"/>
<path class="st0" d="M0.2,202c0-35.3,28.7-64,64-64h160v128c0,17.7,14.3,32,32,32h128v144h-208c-35.3,0-64,28.7-64,64v144h-48
	c-35.3,0-64-28.7-64-64V202z"/>
<path class="st1" d="M384.2,298l-160-160v128c0,17.7,14.3,32,32,32H384.2z M200.2,490c-22.1,0-40,17.9-40,40v80
	c0,22.1,17.9,40,40,40h16c22.1,0,40-17.9,40-40v-8c0-8.8-7.2-16-16-16s-16,7.2-16,16v8c0,4.4-3.6,8-8,8h-16c-4.4,0-8-3.6-8-8v-80
	c0-4.4,3.6-8,8-8h16c4.4,0,8,3.6,8,8v8c0,8.8,7.2,16,16,16s16-7.2,16-16v-8c0-22.1-17.9-40-40-40H200.2z M333.3,490
	c-24.9,0-45.1,20.2-45.1,45.1c0,17.8,10.5,34,26.8,41.2l37.4,16.6c4.7,2.1,7.8,6.8,7.8,12c0,7.2-5.9,13.1-13.1,13.1h-42.9
	c-8.8,0-16,7.2-16,16s7.2,16,16,16h42.9c24.9,0,45.1-20.2,45.1-45.1c0-17.8-10.5-34-26.8-41.2L328,547.1c-4.7-2.1-7.8-6.8-7.8-12
	c0-7.2,5.9-13.1,13.1-13.1h34.9c8.8,0,16-7.2,16-16c0-8.8-7.2-16-16-16L333.3,490L333.3,490z M432.2,490c-8.8,0-16,7.2-16,16v31.6
	c0,34.7,10.3,68.7,29.6,97.6l5.1,7.7c3,4.5,8,7.1,13.3,7.1s10.3-2.7,13.3-7.1l5.1-7.7c19.3-28.9,29.6-62.9,29.6-97.6V506
	c0-8.8-7.2-16-16-16s-16,7.2-16,16v31.6c0,23-5.5,45.6-16,66c-10.5-20.3-16-42.9-16-66V506C448.2,497.2,441,490,432.2,490z"/>
<path class="st0" d="M783,202c0-35.3,28.7-64,64-64h160v128c0,17.7,14.3,32,32,32h128v144H959c-35.3,0-64,28.7-64,64v144h-48
	c-35.3,0-64-28.7-64-64V202z"/>
<path class="st1" d="M1168,299l-160-160v128c0,17.7,14.3,32,32,32H1168z M960,491c-8.8,0-16,7.2-16,16v80v48c0,8.8,7.2,16,16,16
	s16-7.2,16-16v-32h16c30.9,0,56-25.1,56-56s-25.1-56-56-56H960z M992,571h-16v-48h16c13.3,0,24,10.7,24,24S1005.3,571,992,571z
	 M1088,491c-8.8,0-16,7.2-16,16v128c0,8.8,7.2,16,16,16h32c26.5,0,48-21.5,48-48v-64c0-26.5-21.5-48-48-48H1088z M1120,619h-16v-96
	h16c8.8,0,16,7.2,16,16v64C1136,611.8,1128.8,619,1120,619z M1200,507v64v64c0,8.8,7.2,16,16,16s16-7.2,16-16v-48h32
	c8.8,0,16-7.2,16-16s-7.2-16-16-16h-32v-32h32c8.8,0,16-7.2,16-16s-7.2-16-16-16h-48C1207.2,491,1200,498.2,1200,507z"/>
</svg>
