<?xml version="1.0" encoding="utf-8"?>
<!-- Generator: Adobe Illustrator 27.5.0, SVG Export Plug-In . SVG Version: 6.00 Build 0)  -->
<svg version="1.1" id="Calque_1" xmlns="http://www.w3.org/2000/svg" xmlns:xlink="http://www.w3.org/1999/xlink" x="0px" y="0px"
	 viewBox="0 0 1280 200" style="enable-background:new 0 0 1280 200;" xml:space="preserve">
<style type="text/css">
	.st0{fill:#231F20;}
</style>
<path class="st0" d="M94.2,26.7c24.2,0,40.4,5.6,48.7,16.9c8.2,11,10,29.4,5.4,55.1c-4.5,25.6-13,44.1-25.5,55.5
	c-12.4,11.2-30.7,16.7-54.9,16.7c-26.3,0-46-0.4-59.3-1.3c-0.8,0-1.7-0.2-2.4-0.7c-0.3-0.3-0.4-1-0.2-2L30.6,30.8
	c0.1-1.6,1.4-2.6,3.7-2.8C47.8,27.1,67.8,26.7,94.2,26.7z M88.2,43.4H50.3L30.2,154.1H71c16.3,0,28.6-4.3,37-13
	c8.5-8.7,14.6-22.8,18.2-42.5c3.9-21.3,3-35.8-2.6-43.6C118,47.3,106.2,43.4,88.2,43.4z"/>
<path class="st0" d="M261.9,26.7c26,0,42.5,5.1,49.8,15.2c7.2,10,8.2,29.1,3,57.2c-2.6,14.7-5.7,26.4-9.3,35.1
	c-3.2,8.1-8.2,15.5-14.5,21.5c-6.1,5.7-13.6,9.8-21.7,11.8c-8.6,2.3-19.8,3.4-33.6,3.4c-17.9,0-31-2.1-39.4-6.2
	c-16.6-8.4-21.1-30.3-13.4-65.6c2.6-14.7,5.7-26.4,9.3-35.2c3.2-8.1,8-15.5,14.3-21.6c6.2-5.9,13.7-10.1,21.9-12.2
	C236.8,27.8,248,26.7,261.9,26.7z M258.9,43.4c-9.8,0-17.6,0.8-23.5,2.5c-5.7,1.6-10.9,4.8-14.8,9.3c-4.2,5-7.5,10.7-9.5,16.9
	c-2.7,8.8-4.8,17.8-6.5,26.9c-3.9,21.9-3.7,36.7,0.4,44.2c4,7.3,15.3,10.9,33.7,10.9c9.8,0,17.6-0.8,23.5-2.5
	c5.6-1.6,10.7-4.7,14.6-9.1c4.1-4.7,7.2-10.2,9.2-16.2c2.9-8.9,5.1-18,6.6-27.3c4.5-21.6,4.5-36.2,0.2-44
	C288.5,47.3,277.2,43.4,258.9,43.4L258.9,43.4z"/>
<path class="st0" d="M429.1,26.7c17,0,30.4,0.6,40,1.9c2.2,0.3,3,1.3,2.6,3.2l-1.6,8.8c-0.3,1.8-1.9,3-3.7,2.8H426
	c-9.8,0-17.6,0.8-23.5,2.5c-5.7,1.6-10.8,4.8-14.6,9.3c-4.1,4.8-7.2,10.3-9.2,16.3c-2.8,9-5,18.1-6.6,27.4
	c-4.5,21.5-4.5,36.1-0.2,43.8c4.3,7.7,15.6,11.5,34,11.5h40.3c2.2,0,3,0.9,2.6,2.8l-1.5,8.8c-0.3,1.9-1.7,3-4.1,3.4
	c-9.2,1.1-22.7,1.7-40.4,1.7c-17.9,0-31-2.1-39.4-6.2c-16.3-8.3-20.7-30.2-13.2-65.8c4.9-27.9,12.8-47,23.6-57.2
	C384.4,31.7,402.8,26.7,429.1,26.7z"/>
<path class="st0" d="M599.3,33c0.9,0,1.3,0.4,1.3,1.2l-0.8,3.8c0,0.7-0.4,1.2-1.5,1.2l-46.3,0.3c-25.7,0.1-38.7,7-41.4,22.6
	l-0.2,1.9c-2.5,12.8,0.3,19,15.7,24.9l47.9,18.9c13.9,5.6,19.3,16.1,16.4,31.5l-0.8,4.5c-3.2,12.8-7.7,19.6-17.2,24
	c-6.9,2.9-9.7,3.8-19,4.6c-4.5,0.4-7.8,0.6-9.7,0.6l-10.2,0.1c-24.2,0.1-41.5,0-51.9-0.5c-1.1,0-1.5-0.4-1.3-1.3l0.9-3.4
	c0.1-0.8,0.9-1.4,1.7-1.3l53-0.3c5.2,0,9.1-0.1,11.9-0.3c2.8-0.2,6.3-0.6,10.8-1.4c3.7-0.5,7.3-1.6,10.6-3.3
	c6.4-3.9,10.7-10.4,12-17.7l0.8-3.9c1.9-12.7-2.5-21.2-13.3-25.9l-48.3-19.1c-9.3-3.5-15-7.4-17.4-11.8c-2.2-4.3-2.6-10.4-1.6-17.9
	l0.9-3.2c3.6-20.9,20.6-29.1,52.4-29.2C574,32.4,588.9,32.4,599.3,33z"/>
<path class="st0" d="M705.5,32c10.2,0.1,21.6,1.4,27.1,3.8c5.4,2.4,10.9,6.1,12.4,12.7c1.6,6.2,1.6,14.5-0.3,25.9
	c-2.9,20.1-10.2,30.9-20.6,36.6c-4.3,2.1-8.9,3.5-13.6,4.2c-5.7,0.9-11.4,1.5-17.1,1.8c-5.4,0.2-13,0.4-22.5,0.5l-27,0.1l-9.2,52.3
	c-0.2,0.9-0.6,1.3-1.7,1.3h-5.6c-1.1,0-1.3-0.4-1.1-1.3l24.2-136.3c0-0.9,0.4-1.3,1.5-1.3c11.7-0.5,23.1-0.7,34.4-0.8
	C694.2,31.7,700.5,31.9,705.5,32z M657.7,38.7L644.9,111l26.8-0.1c8.4,0,15-0.1,19.7-0.3c9.7-0.6,21.6-2.2,26.8-5
	c8.8-4.9,15.7-13.8,17.8-30.9c2.5-14.1,2-23.9-4-28.4c-4.1-3.5-8.1-5.6-16.9-6.5c-10.1-1-20.3-1.4-30.5-1.2L657.7,38.7z"/>
<path class="st0" d="M854.5,34.4c2,2.4,3.5,8.3,4.9,17.7l17.3,116.5c0.2,1.3,0,1.5-1.5,1.5h-6.1c-0.6,0-1.1-0.4-1.1-0.9
	c0-0.1,0-0.1,0-0.2l-7.1-46.7l-71.8,0.4l-23.5,47c-0.3,0.7-1,1.1-1.7,1.2h-6.1c-1.1,0-1.5-0.6-1.2-1.5l58.9-116.9
	c4.7-9.4,8.4-15.3,11.1-17.7c2.8-2.5,7.8-3.6,14.5-3.7C848.2,30.9,852.6,32,854.5,34.4z M831.4,40.5c-1.7,1.7-4.3,6.2-7.9,13.4
	l-31.1,61.7l67.3-0.4l-9-61.4c-1.1-7.3-2.2-11.8-3.2-13.5c-1.2-1.7-3.5-2.6-7.6-2.6C836,37.7,833.1,38.6,831.4,40.5z"/>
<path class="st0" d="M1113.4,30.2c1.3,0,1.5,0.6,0.9,1.5l-56.7,116.9c-4.5,9.4-8.1,15.3-10.7,17.7c-2.4,2.5-6.7,3.6-12.7,3.6
	c-6.3,0-10.4-1.1-12.1-3.5c-1.8-2.4-3.1-8.3-4-17.6l-10.5-97.4l-45.1,97.7c-4.3,9.4-7.7,15.3-10.3,17.7s-7.1,3.6-13.4,3.6
	c-6.1,0-10-1.1-11.7-3.5c-1.5-2.4-3.1-8.2-4.2-17.6L907.2,33.1c-0.2-1.2,0.2-1.7,1.3-1.7h6.5c0.7,0,1.2,0.5,1.3,1.2l15,115.2
	c0.9,7.5,1.8,12,2.7,13.7s2.8,2.4,5.9,2.4c3.2,0,5.8-0.8,7.3-2.5c1.5-1.7,4.1-6.4,7.5-13.8l50.5-109.4c0.3-0.8,1.1-1.4,1.9-1.3h6.1
	c0.7-0.1,1.4,0.4,1.5,1.2l11.8,109.2c0.9,7.5,1.8,12,2.7,13.7c0.9,1.7,2.8,2.4,6.1,2.4s5.4-0.8,6.9-2.5s4.1-6.4,7.7-13.8l55.6-115.4
	c0.2-0.8,0.9-1.3,1.7-1.3L1113.4,30.2z"/>
<path class="st0" d="M1273.6,29.4c1.1,0,1.5,0.6,1.3,1.5L1251,166.4c-0.2,0.9-0.6,1.5-1.7,1.5h-6.9c-1.4,0.1-2.7-0.7-3.5-1.9
	L1161,39l-22.7,128.2c-0.1,0.8-0.9,1.4-1.7,1.3h-5.6c-0.9,0-1.3-0.4-1.2-1.3l23.9-135.9c0.1-0.8,0.9-1.4,1.7-1.3h7.1
	c1.7,0.2,3.3,1,4.3,2.4l76.8,125.4l22.4-127.1c0.1-0.8,0.9-1.4,1.7-1.3L1273.6,29.4z"/>
</svg>
