<svg id="Layer_1" data-name="Layer 1" xmlns="http://www.w3.org/2000/svg" xmlns:xlink="http://www.w3.org/1999/xlink" viewBox="0 0 1719.97 489.86"><defs><style>.cls-1{fill:#231f20;}.cls-10,.cls-11,.cls-12,.cls-13,.cls-14,.cls-15,.cls-16,.cls-17,.cls-18,.cls-19,.cls-2,.cls-20,.cls-21,.cls-22,.cls-23,.cls-24,.cls-25,.cls-26,.cls-27,.cls-28,.cls-29,.cls-3,.cls-30,.cls-31,.cls-32,.cls-33,.cls-34,.cls-35,.cls-36,.cls-37,.cls-4,.cls-5,.cls-6,.cls-7,.cls-8,.cls-9{fill-rule:evenodd;}.cls-2{fill:url(#Новый_образец_градиента_1);}.cls-3{fill:url(#Новый_образец_градиента_1-2);}.cls-4{fill:url(#Новый_образец_градиента_1-3);}.cls-5{fill:url(#Новый_образец_градиента_1-4);}.cls-6{fill:url(#Новый_образец_градиента_1-5);}.cls-7{fill:url(#Новый_образец_градиента_1-6);}.cls-8{fill:url(#Новый_образец_градиента_1-7);}.cls-9{fill:url(#Новый_образец_градиента_1-8);}.cls-10{fill:url(#Новый_образец_градиента_1-9);}.cls-11{fill:url(#Новый_образец_градиента_1-10);}.cls-12{fill:url(#Новый_образец_градиента_1-11);}.cls-13{fill:url(#Новый_образец_градиента_1-12);}.cls-14{fill:url(#Новый_образец_градиента_1-13);}.cls-15{fill:url(#Новый_образец_градиента_1-14);}.cls-16{fill:url(#Новый_образец_градиента_1-15);}.cls-17{fill:url(#Новый_образец_градиента_1-16);}.cls-18{fill:url(#Новый_образец_градиента_1-17);}.cls-19{fill:url(#Новый_образец_градиента_1-18);}.cls-20{fill:url(#Новый_образец_градиента_1-19);}.cls-21{fill:url(#Новый_образец_градиента_1-20);}.cls-22{fill:url(#Новый_образец_градиента_1-21);}.cls-23{fill:url(#Новый_образец_градиента_1-22);}.cls-24{fill:url(#Новый_образец_градиента_1-23);}.cls-25{fill:url(#Новый_образец_градиента_1-24);}.cls-26{fill:url(#Новый_образец_градиента_1-25);}.cls-27{fill:url(#Новый_образец_градиента_1-26);}.cls-28{fill:url(#Новый_образец_градиента_1-27);}.cls-29{fill:url(#Новый_образец_градиента_1-28);}.cls-30{fill:url(#Новый_образец_градиента_1-29);}.cls-31{fill:url(#Новый_образец_градиента_1-30);}.cls-32{fill:url(#Новый_образец_градиента_1-31);}.cls-33{fill:url(#Новый_образец_градиента_1-32);}.cls-34{fill:url(#Новый_образец_градиента_1-33);}.cls-35{fill:url(#Новый_образец_градиента_1-34);}.cls-36{fill:url(#Новый_образец_градиента_1-35);}.cls-37{fill:url(#Новый_образец_градиента_1-36);}</style><linearGradient id="Новый_образец_градиента_1" x1="317.13" y1="409.15" x2="240.48" y2="63.48" gradientUnits="userSpaceOnUse"><stop offset="0" stop-color="#00adee"/><stop offset="0.13" stop-color="#23a3e3"/><stop offset="0.45" stop-color="#718ccb"/><stop offset="0.71" stop-color="#aa7cb9"/><stop offset="0.9" stop-color="#cd72ae"/><stop offset="1" stop-color="#da6eaa"/></linearGradient><linearGradient id="Новый_образец_градиента_1-2" x1="297.43" y1="413.52" x2="220.79" y2="67.85" xlink:href="#Новый_образец_градиента_1"/><linearGradient id="Новый_образец_градиента_1-3" x1="266.44" y1="420.39" x2="189.79" y2="74.72" xlink:href="#Новый_образец_градиента_1"/><linearGradient id="Новый_образец_градиента_1-4" x1="270.55" y1="419.48" x2="193.9" y2="73.81" xlink:href="#Новый_образец_градиента_1"/><linearGradient id="Новый_образец_градиента_1-5" x1="237.17" y1="426.88" x2="160.53" y2="81.21" xlink:href="#Новый_образец_градиента_1"/><linearGradient id="Новый_образец_градиента_1-6" x1="194.68" y1="436.3" x2="118.03" y2="90.63" xlink:href="#Новый_образец_градиента_1"/><linearGradient id="Новый_образец_градиента_1-7" x1="225.66" y1="429.44" x2="149.01" y2="83.76" xlink:href="#Новый_образец_градиента_1"/><linearGradient id="Новый_образец_градиента_1-8" x1="185.58" y1="438.32" x2="108.93" y2="92.65" xlink:href="#Новый_образец_градиента_1"/><linearGradient id="Новый_образец_градиента_1-9" x1="138.87" y1="448.68" x2="62.22" y2="103.01" xlink:href="#Новый_образец_градиента_1"/><linearGradient id="Новый_образец_градиента_1-10" x1="190.42" y1="437.25" x2="113.77" y2="91.58" xlink:href="#Новый_образец_градиента_1"/><linearGradient id="Новый_образец_градиента_1-11" x1="150.63" y1="446.07" x2="73.98" y2="100.4" xlink:href="#Новый_образец_градиента_1"/><linearGradient id="Новый_образец_градиента_1-12" x1="105.5" y1="456.08" x2="28.85" y2="110.41" xlink:href="#Новый_образец_градиента_1"/><linearGradient id="Новый_образец_градиента_1-13" x1="170.97" y1="441.56" x2="94.32" y2="95.89" xlink:href="#Новый_образец_градиента_1"/><linearGradient id="Новый_образец_градиента_1-14" x1="139.4" y1="448.56" x2="62.75" y2="102.89" xlink:href="#Новый_образец_градиента_1"/><linearGradient id="Новый_образец_градиента_1-15" x1="107.08" y1="455.73" x2="30.43" y2="110.06" xlink:href="#Новый_образец_градиента_1"/><linearGradient id="Новый_образец_градиента_1-16" x1="173.96" y1="440.9" x2="97.31" y2="95.23" xlink:href="#Новый_образец_градиента_1"/><linearGradient id="Новый_образец_градиента_1-17" x1="161.53" y1="443.65" x2="84.88" y2="97.98" xlink:href="#Новый_образец_градиента_1"/><linearGradient id="Новый_образец_градиента_1-18" x1="161.06" y1="443.76" x2="84.41" y2="98.09" xlink:href="#Новый_образец_градиента_1"/><linearGradient id="Новый_образец_градиента_1-19" x1="204.18" y1="434.2" x2="127.53" y2="88.53" xlink:href="#Новый_образец_градиента_1"/><linearGradient id="Новый_образец_градиента_1-20" x1="222.32" y1="430.18" x2="145.67" y2="84.5" xlink:href="#Новый_образец_градиента_1"/><linearGradient id="Новый_образец_градиента_1-21" x1="265.94" y1="420.5" x2="189.29" y2="74.83" xlink:href="#Новый_образец_градиента_1"/><linearGradient id="Новый_образец_градиента_1-22" x1="256.86" y1="422.52" x2="180.21" y2="76.85" xlink:href="#Новый_образец_градиента_1"/><linearGradient id="Новый_образец_градиента_1-23" x1="305.97" y1="411.63" x2="229.32" y2="65.96" xlink:href="#Новый_образец_градиента_1"/><linearGradient id="Новый_образец_градиента_1-24" x1="387.17" y1="393.62" x2="310.52" y2="47.95" xlink:href="#Новый_образец_градиента_1"/><linearGradient id="Новый_образец_градиента_1-25" x1="316.45" y1="409.3" x2="239.8" y2="63.63" xlink:href="#Новый_образец_градиента_1"/><linearGradient id="Новый_образец_градиента_1-26" x1="382.19" y1="394.73" x2="305.54" y2="49.05" xlink:href="#Новый_образец_градиента_1"/><linearGradient id="Новый_образец_градиента_1-27" x1="468.94" y1="375.49" x2="392.29" y2="29.82" xlink:href="#Новый_образец_градиента_1"/><linearGradient id="Новый_образец_градиента_1-28" x1="361.15" y1="399.39" x2="284.5" y2="53.72" xlink:href="#Новый_образец_градиента_1"/><linearGradient id="Новый_образец_градиента_1-29" x1="416.27" y1="387.17" x2="339.62" y2="41.5" xlink:href="#Новый_образец_градиента_1"/><linearGradient id="Новый_образец_градиента_1-30" x1="472.25" y1="374.76" x2="395.6" y2="29.08" xlink:href="#Новый_образец_градиента_1"/><linearGradient id="Новый_образец_градиента_1-31" x1="373.6" y1="396.63" x2="296.95" y2="50.96" xlink:href="#Новый_образец_градиента_1"/><linearGradient id="Новый_образец_градиента_1-32" x1="402.28" y1="390.27" x2="325.63" y2="44.6" xlink:href="#Новый_образец_градиента_1"/><linearGradient id="Новый_образец_градиента_1-33" x1="420.03" y1="386.33" x2="343.38" y2="40.66" xlink:href="#Новый_образец_градиента_1"/><linearGradient id="Новый_образец_градиента_1-34" x1="355.15" y1="400.72" x2="278.5" y2="55.05" xlink:href="#Новый_образец_градиента_1"/><linearGradient id="Новый_образец_градиента_1-35" x1="357.15" y1="400.28" x2="280.5" y2="54.61" xlink:href="#Новый_образец_градиента_1"/><linearGradient id="Новый_образец_градиента_1-36" x1="345.82" y1="402.79" x2="269.17" y2="57.12" xlink:href="#Новый_образец_градиента_1"/></defs><path class="cls-1" d="M656.24,187q31.59,0,42.3,14.71,10.73,14.39,4.71,47.89-5.84,33.35-22.19,48.22-16.18,14.55-47.76,14.54-34.23,0-51.53-1.14a3.73,3.73,0,0,1-2.07-.57c-.25-.27-.31-.84-.18-1.72L601,190.56c.13-1.42,1.19-2.23,3.2-2.46Q621.82,187,656.24,187ZM651,201.51H618.06l-17.48,96.27h35.54q21.24,0,32.15-11.28,11.09-11.28,15.79-36.94,5.09-27.78-2.25-37.92T651,201.51Z"/><path class="cls-1" d="M802,187q33.85,0,43.25,13.24,9.4,13.08,2.63,49.69-3.37,19.13-8.08,30.48a52.87,52.87,0,0,1-12.6,18.72,42.49,42.49,0,0,1-18.9,10.29q-11.19,2.94-29.24,2.94-23.31,0-34.22-5.39-21.63-10.95-11.66-57,3.39-19.12,8.09-30.57a53.6,53.6,0,0,1,12.41-18.79A43.72,43.72,0,0,1,772.72,190Q783.91,187,802,187Zm-2.63,14.55q-12.8,0-20.4,2.2a27,27,0,0,0-12.88,8.09,44.19,44.19,0,0,0-8.28,14.71,213.1,213.1,0,0,0-5.64,23.38q-5.07,28.61.38,38.41,5.26,9.48,29.33,9.48,12.78,0,20.4-2.21a26.41,26.41,0,0,0,12.7-7.93,41.74,41.74,0,0,0,8-14.05,168,168,0,0,0,5.73-23.7q5.83-28.11.19-38.25T799.33,201.51Z"/><path class="cls-1" d="M947.31,187q22.19,0,34.79,1.64,2.82.33,2.25,2.77L983,199.06a2.94,2.94,0,0,1-3.2,2.45H944.68q-12.79,0-20.4,2.2a25.89,25.89,0,0,0-12.69,8.09,41.55,41.55,0,0,0-8,14.14,171.78,171.78,0,0,0-5.73,23.78q-5.83,28-.19,38.09,5.64,10,29.52,10h35c1.88,0,2.63.82,2.25,2.45l-1.31,7.68q-.39,2.46-3.58,2.94-12,1.47-35.16,1.47-23.31,0-34.22-5.39-21.25-10.79-11.47-57.21,6.39-36.43,20.5-49.68Q913.09,187,947.31,187Z"/><path class="cls-1" d="M1095.26,192.46c.75,0,1.13.32,1.13,1l-.73,3.28c0,.65-.37,1-1.31,1l-40.24.23c-22.38.12-33.63,6.06-36,19.64l-.18,1.64c-2.19,11.13.28,16.51,13.66,21.66l41.65,16.45q18.09,7.24,14.25,27.38l-.73,3.92c-2.76,11.13-6.68,17-14.93,20.84-6,2.49-8.44,3.32-16.52,4q-5.93.52-8.46.53l-8.84.05c-21.06.12-36.11,0-45.13-.4-.94,0-1.32-.32-1.14-1.14l.74-2.95a1.38,1.38,0,0,1,1.49-1.15l46.07-.25c4.52,0,7.9-.05,10.35-.22s5.45-.52,9.39-1.2a29.85,29.85,0,0,0,9.2-2.83,22.62,22.62,0,0,0,10.45-15.42l.73-3.43c1.63-11-2.17-18.46-11.59-22.5l-42-16.6c-8.1-3.06-13-6.47-15.1-10.22-1.9-3.75-2.3-9-1.4-15.52l.74-2.78c3.09-18.16,17.91-25.27,45.55-25.42C1073.26,191.93,1086.23,192,1095.26,192.46Z"/><path class="cls-1" d="M1187.58,191.63c8.84.11,18.81,1.2,23.52,3.3s9.44,5.34,10.78,11.06c1.35,5.38,1.39,12.57-.25,22.55-2.54,17.51-8.88,26.86-17.88,31.81a39.27,39.27,0,0,1-11.82,3.66,120.49,120.49,0,0,1-14.85,1.55c-4.7.19-11.28.39-19.56.44l-23.5.13-8,45.48c-.18.82-.55,1.15-1.49,1.15l-4.89,0c-.94,0-1.13-.32-.95-1.14l21-118.45c0-.82.37-1.15,1.31-1.15q15.22-.59,29.89-.66C1177.8,191.35,1183.25,191.49,1187.58,191.63Zm-41.53,5.78-11.12,62.83,23.31-.13c7.34,0,13-.07,17.11-.26,8.46-.53,18.8-1.9,23.3-4.38,7.68-4.29,13.66-12,15.46-26.89,2.19-12.27,1.77-20.76-3.52-24.66-3.59-3.08-7-4.86-14.7-5.64a231.36,231.36,0,0,0-26.52-1Z"/><path class="cls-1" d="M1317.15,193.69c1.7,2.12,3,7.18,4.22,15.35l15,101.25c.2,1.15,0,1.31-1.31,1.32l-5.26,0a.89.89,0,0,1-.95-1L1322.64,270l-62.43.34-20.46,40.81a1.74,1.74,0,0,1-1.5,1l-5.26,0c-.94,0-1.32-.49-1-1.31l51.16-101.61c4.09-8.2,7.26-13.28,9.69-15.42s6.75-3.14,12.58-3.18C1311.68,190.62,1315.44,191.58,1317.15,193.69ZM1297.06,199c-1.5,1.49-3.74,5.42-6.9,11.65l-27,53.59,58.48-.32-7.82-53.4Q1312.4,201,1311,198.8c-1-1.47-3-2.28-6.59-2.26Q1299.3,196.57,1297.06,199Z"/><path class="cls-1" d="M1542.12,190.08c1.13,0,1.32.48.76,1.3L1493.6,293c-3.9,8.19-7.07,13.28-9.31,15.41-2.06,2.14-5.82,3.14-11.08,3.17-5.45,0-9-.93-10.55-3.05s-2.67-7.18-3.47-15.34l-9.11-84.62-39.21,84.88c-3.72,8.2-6.7,13.28-8.94,15.41s-6.19,3.14-11.65,3.17c-5.26,0-8.65-.93-10.17-3-1.32-2.11-2.67-7.17-3.65-15.34l-13.53-101.1c-.2-1,.18-1.47,1.12-1.48l5.64,0a1.14,1.14,0,0,1,1.13,1l13,100.13c.79,6.53,1.56,10.45,2.32,11.92s2.46,2.11,5.09,2.1c2.82,0,5.08-.69,6.38-2.17s3.55-5.57,6.52-12L1448,197a1.74,1.74,0,0,1,1.68-1.16l5.27,0a1.2,1.2,0,0,1,1.32,1l10.3,94.91c.79,6.53,1.56,10.45,2.32,11.91s2.46,2.12,5.28,2.1,4.69-.68,6-2.16,3.55-5.57,6.71-12l48.34-100.29a1.66,1.66,0,0,1,1.5-1.15Z"/><path class="cls-1" d="M1681.45,189.31c.94,0,1.32.49,1.13,1.3l-20.79,117.8c-.18.82-.55,1.31-1.49,1.32l-6,0a3.3,3.3,0,0,1-3-1.62l-67.74-110.45-19.7,111.42a1.37,1.37,0,0,1-1.49,1.15l-4.89,0c-.75,0-1.13-.32-1-1.14L1577.28,191a1.4,1.4,0,0,1,1.5-1.16l6.21,0a5.33,5.33,0,0,1,3.77,2.1l66.79,109,19.51-110.44a1.39,1.39,0,0,1,1.5-1.15Z"/><path class="cls-1" d="M689.85,347h26.71q.68,0,.63.63l-.44,2.47c-.06.42-.33.63-.82.63H705l-5,27.37c-.06.42-.34.63-.82.63h-3.42q-.68,0-.63-.63l5-27.37h-11q-.67,0-.63-.63l.49-2.47C689.06,347.18,689.33,347,689.85,347Z"/><path class="cls-1" d="M727.26,347h3.19c.45,0,.66.21.62.63l-1.49,8.13c1.77-.14,3.82-.21,6.17-.21,1.58,0,2.85.05,3.81.13q3.62.21,4.77,1.47c1.35,1.34,1.63,4.08.82,8.21l-2.31,12.7c0,.42-.31.63-.82.63h-3.18q-.68,0-.63-.63l2.27-12.36a13.17,13.17,0,0,0,.14-5.07,1.58,1.58,0,0,0-1-1.09,10.71,10.71,0,0,0-4-.51H729l-3.47,19a.72.72,0,0,1-.82.63h-3.18q-.74,0-.63-.63l5.54-30.43C726.48,347.22,726.75,347,727.26,347Z"/><path class="cls-1" d="M768.83,355.56c4.31,0,7,.74,8.15,2.23s1.36,4.4.63,8.84l-.25,1.21a1.22,1.22,0,0,1-.5.93,3,3,0,0,1-1.42.25H760.05c-.38,2.57-.24,4.27.44,5.11s2.3,1.26,4.87,1.26h7.91c.48,0,.69.21.62.63l-.38,1.84a.81.81,0,0,1-.82.67,71.33,71.33,0,0,1-8.1.38,17.86,17.86,0,0,1-6.71-.92q-4.1-1.94-2.17-10.73,1.31-7,3.86-9.39T768.83,355.56Zm-.63,3.52q-3.86,0-5.3,1.35c-1,.89-1.75,2.67-2.27,5.32h12.44c.45-2.71.37-4.49-.24-5.32S770.65,359.08,768.2,359.08Z"/><path class="cls-1" d="M832.77,347h3.47q.76,0,.63.63l-2.8,15.3a41.71,41.71,0,0,1-2.1,8,13.14,13.14,0,0,1-3.16,4.75,10.53,10.53,0,0,1-4.72,2.54,31.23,31.23,0,0,1-7.33.69c-4.44,0-7.65-.64-9.65-1.93a5.25,5.25,0,0,1-2.07-2.93q-1.06-3.57.29-11.15l2.8-15.3A.75.75,0,0,1,809,347h3.47q.76,0,.63.63l-2.85,15.3q-1.35,7.38.12,9.85t7.16,2.43q5.68,0,8-2.43t3.66-9.85l2.8-15.3A.75.75,0,0,1,832.77,347Z"/><path class="cls-1" d="M849.89,347h3.18q.67,0,.63.63l-5.55,30.47c-.06.42-.34.63-.82.63h-3.18q-.72,0-.63-.63l5.55-30.47C849.1,347.18,849.37,347,849.89,347Z"/><path class="cls-1" d="M867.15,350.12l3.28-.68c.58-.11.82.07.72.55L870,355.82h5.11c.48,0,.69.2.63.62l-.39,2c-.06.42-.33.63-.82.63h-5.11l-2.55,14.09c-.16.92-.08,1.53.26,1.82a4.29,4.29,0,0,0,2.44.44h2.31c.52,0,.74.2.68.59l-.34,2a1,1,0,0,1-.87.67,13.36,13.36,0,0,1-2.75.25,16.24,16.24,0,0,1-4.82-.59c-1.57-.53-2.14-1.93-1.69-4.19l2.7-15.09h-2.7c-.48,0-.69-.21-.62-.63l.38-2c.07-.42.34-.62.82-.62h2.75l.87-5A.91.91,0,0,1,867.15,350.12Z"/><path class="cls-1" d="M886.58,355.77h3.18c.49,0,.69.21.63.63l-3.95,21.67a.72.72,0,0,1-.82.63h-3.19c-.48,0-.69-.21-.62-.63l4-21.67C885.82,356,886.1,355.77,886.58,355.77Zm3.28-9.13c1.9,0,2.7.81,2.41,2.43s-1.38,2.47-3.28,2.47-2.7-.82-2.41-2.47S887.9,346.64,889.86,346.64Z"/><path class="cls-1" d="M927.08,355.52c1.55,0,2.77,0,3.67.13q3.46.21,4.68,1.46a4.69,4.69,0,0,1,1.25,2.92,19.75,19.75,0,0,1-.39,5.17l-2.46,12.87a.7.7,0,0,1-.81.63h-3.09q-.72,0-.63-.63l2.27-12.36a13.17,13.17,0,0,0,.14-5.07,1.58,1.58,0,0,0-1-1.09,10.57,10.57,0,0,0-4-.51,38.14,38.14,0,0,0-5.69.38,16.35,16.35,0,0,1-.28,5.95l-2.42,12.7a.68.68,0,0,1-.77.63h-3.18c-.48,0-.68-.21-.58-.63l2.32-12.61a10.75,10.75,0,0,0,0-4.91,1.57,1.57,0,0,0-1-1,12,12,0,0,0-3.9-.47h-4.83l-3.47,19c0,.42-.3.63-.82.63H899q-.67,0-.63-.63l3.91-21.16c0-.37.29-.59.77-.68a52.11,52.11,0,0,1,8.2-.67,19.78,19.78,0,0,1,7.76,1.26A29.14,29.14,0,0,1,927.08,355.52Z"/><path class="cls-1" d="M958.18,355.56c3.8,0,6.47.53,8,1.58s2.13,2.71,1.72,5l-2.7,14.67c0,.56-.41,1-1.11,1.18q-3,.92-10.9.92c-3.35,0-5.66-.45-7-1.34s-1.63-2.73-1.15-5.41a7.12,7.12,0,0,1,3-5,12.77,12.77,0,0,1,6.75-1.46l7.76,0,.53-2.81a2.65,2.65,0,0,0-1-2.89c-.87-.59-2.41-.89-4.63-.89h-7.24a.85.85,0,0,1-.55-.12c-.08-.08-.1-.25-.07-.5l.38-1.72c0-.37.29-.59.78-.67A50.28,50.28,0,0,1,958.18,355.56ZM960.93,375l1.11-6h-7.66a5.82,5.82,0,0,0-3.21.72,3.53,3.53,0,0,0-1.42,2.43c-.26,1.31,0,2.21.7,2.68s2.13.71,4.21.71A30.51,30.51,0,0,0,960.93,375Z"/><path class="cls-1" d="M983.74,350.12l3.28-.68c.58-.11.82.07.72.55l-1.11,5.83h5.12c.48,0,.69.2.62.62l-.38,2a.72.72,0,0,1-.82.63h-5.11l-2.56,14.09c-.16.92-.07,1.53.27,1.82a4.23,4.23,0,0,0,2.43.44h2.31c.52,0,.74.2.68.59l-.34,2a1,1,0,0,1-.87.67,13.33,13.33,0,0,1-2.74.25,16.32,16.32,0,0,1-4.83-.59q-2.35-.79-1.68-4.19l2.7-15.09h-2.7q-.74,0-.63-.63l.39-2c.06-.42.33-.62.81-.62h2.75l.87-5A.92.92,0,0,1,983.74,350.12Z"/><path class="cls-1" d="M1012.62,355.56q6.46,0,8.15,2.23t.63,8.84l-.24,1.21a1.23,1.23,0,0,1-.51.93,3,3,0,0,1-1.42.25h-15.38c-.39,2.57-.24,4.27.43,5.11s2.3,1.26,4.87,1.26h7.91q.72,0,.63.63l-.39,1.84a.8.8,0,0,1-.82.67,71.33,71.33,0,0,1-8.1.38,17.84,17.84,0,0,1-6.7-.92q-4.09-1.94-2.17-10.73,1.31-7,3.86-9.39T1012.62,355.56Zm-.62,3.52q-3.86,0-5.31,1.35c-1,.89-1.75,2.67-2.26,5.32h12.44c.45-2.71.37-4.49-.24-5.32S1014.44,359.08,1012,359.08Z"/><path class="cls-1" d="M1066.39,346.76q8.1,0,10.85,3.77t1.2,12.29q-1.49,8.55-5.69,12.36t-12.24,3.73q-8.77,0-13.22-.29a1,1,0,0,1-.53-.15.57.57,0,0,1,0-.44l5.49-30.35c0-.36.31-.57.82-.62Q1057.56,346.76,1066.39,346.76Zm-1.35,3.73h-8.44l-4.48,24.69h9.11q5.44,0,8.24-2.89t4.06-9.47q1.29-7.14-.58-9.73C1071.69,351.36,1069.06,350.49,1065,350.49Z"/><path class="cls-1" d="M1101.35,355.56c3.66,0,6.22.48,7.66,1.43a4.88,4.88,0,0,1,2,3.62,23.73,23.73,0,0,1-.56,6.65,34.38,34.38,0,0,1-1.52,5.93,8.67,8.67,0,0,1-2.29,3.37,8.08,8.08,0,0,1-3.64,1.85,27.19,27.19,0,0,1-5.86.5q-6.84,0-8.68-2.26t-.43-9.39a34.56,34.56,0,0,1,1.54-5.89,9.36,9.36,0,0,1,2.27-3.42,7.89,7.89,0,0,1,3.64-1.88A26.78,26.78,0,0,1,1101.35,355.56Zm-.63,3.52q-4.29,0-5.74,1.56t-2.36,6.62c-.68,3.27-.71,5.43-.1,6.5s2.35,1.63,5.21,1.63a15,15,0,0,0,3.69-.34,4,4,0,0,0,2.1-1.29,7,7,0,0,0,1.32-2.35,28.72,28.72,0,0,0,.94-4.15q1.07-4.86.1-6.54T1100.72,359.08Z"/><path class="cls-1" d="M1134.14,355.56a60.75,60.75,0,0,1,7.23.38c.51,0,.69.27.53.71l-.34,1.81c-.06.42-.34.62-.82.62h-7.28c-2.83,0-4.72.52-5.69,1.56s-1.75,3.24-2.36,6.62-.71,5.43-.1,6.5,2.35,1.63,5.21,1.63h7.23c.49,0,.71.21.68.63l-.34,1.8a.9.9,0,0,1-.87.71,63.71,63.71,0,0,1-7.38.38c-4.62,0-7.52-.75-8.67-2.26s-1.26-4.7-.39-9.39a34.13,34.13,0,0,1,1.52-5.93,8.7,8.7,0,0,1,2.29-3.38,7.89,7.89,0,0,1,3.64-1.88A26.78,26.78,0,0,1,1134.14,355.56Z"/><path class="cls-1" d="M1170.16,355.77h3.18c.48,0,.67.21.58.63l-3.86,21.21c0,.34-.31.55-.82.63a63.62,63.62,0,0,1-10.17.67c-1.55,0-2.83,0-3.86-.13-2.35-.14-3.92-.62-4.73-1.46-1.35-1.34-1.62-4.1-.82-8.26L1152,356.4a.81.81,0,0,1,.91-.63H1156q.68,0,.63.63l-2.27,12.37q-.77,4.28.24,5.7a1.6,1.6,0,0,0,1.06.63,15.09,15.09,0,0,0,3.57.29h6.61l3.47-19A.78.78,0,0,1,1170.16,355.77Z"/><path class="cls-1" d="M1210.61,355.52c1.55,0,2.77,0,3.67.13q3.46.21,4.67,1.46a4.64,4.64,0,0,1,1.26,2.92,19.75,19.75,0,0,1-.39,5.17l-2.46,12.87c-.06.42-.33.63-.82.63h-3.08q-.72,0-.63-.63l2.27-12.36a13.17,13.17,0,0,0,.14-5.07,1.58,1.58,0,0,0-1-1.09,10.57,10.57,0,0,0-4-.51,38.14,38.14,0,0,0-5.69.38,16.17,16.17,0,0,1-.29,5.95l-2.41,12.7a.68.68,0,0,1-.77.63H1198c-.48,0-.68-.21-.58-.63l2.32-12.61a10.75,10.75,0,0,0,0-4.91,1.59,1.59,0,0,0-1-1,12.08,12.08,0,0,0-3.91-.47H1190l-3.47,19c0,.42-.3.63-.82.63h-3.18q-.67,0-.63-.63l3.91-21.16c0-.37.29-.59.77-.68a52.11,52.11,0,0,1,8.2-.67,19.78,19.78,0,0,1,7.76,1.26A29.14,29.14,0,0,1,1210.61,355.52Z"/><path class="cls-1" d="M1243.5,355.56q6.45,0,8.15,2.23t.62,8.84l-.24,1.21a1.22,1.22,0,0,1-.5.93,3,3,0,0,1-1.43.25h-15.38c-.38,2.57-.24,4.27.44,5.11s2.29,1.26,4.87,1.26h7.9c.49,0,.69.21.63.63l-.39,1.84c-.06.39-.33.62-.82.67a71.33,71.33,0,0,1-8.1.38,17.84,17.84,0,0,1-6.7-.92q-4.1-1.94-2.17-10.73,1.3-7,3.86-9.39T1243.5,355.56Zm-.63,3.52q-3.86,0-5.3,1.35c-1,.89-1.76,2.67-2.27,5.32h12.44c.45-2.71.37-4.49-.24-5.32S1245.31,359.08,1242.87,359.08Z"/><path class="cls-1" d="M1275.61,355.56c1.58,0,2.85.05,3.81.13q3.61.21,4.77,1.47,2,2,.82,8.21l-2.31,12.7c-.07.42-.37.63-.92.63h-3.08q-.72,0-.63-.63l2.27-12.36a13.17,13.17,0,0,0,.14-5.07,1.55,1.55,0,0,0-1-1.05,10.71,10.71,0,0,0-4-.51h-6.61l-3.47,19c0,.42-.31.63-.82.63h-3.18q-.67,0-.63-.63l3.86-21.16a.82.82,0,0,1,.17-.4.57.57,0,0,1,.24-.19,2.19,2.19,0,0,1,.41-.09A64.82,64.82,0,0,1,1275.61,355.56Z"/><path class="cls-1" d="M1301.31,350.12l3.28-.68c.58-.11.82.07.72.55l-1.11,5.83h5.12c.48,0,.69.2.62.62l-.38,2a.72.72,0,0,1-.82.63h-5.11l-2.56,14.09c-.16.92-.07,1.53.27,1.82a4.23,4.23,0,0,0,2.43.44h2.32c.51,0,.73.2.67.59l-.34,2a1,1,0,0,1-.86.67,13.43,13.43,0,0,1-2.75.25,16.32,16.32,0,0,1-4.83-.59q-2.36-.79-1.68-4.19L1299,359h-2.7q-.72,0-.63-.63l.39-2c.06-.42.33-.62.82-.62h2.74l.87-5A.92.92,0,0,1,1301.31,350.12Z"/><path class="cls-1" d="M1351.89,346.76a76.29,76.29,0,0,1,9.21.42c.49.06.68.29.58.71l-.33,2a.75.75,0,0,1-.82.63h-9.31a19.27,19.27,0,0,0-5.23.57,6.73,6.73,0,0,0-3.26,2.07,11.39,11.39,0,0,0-2.12,3.78,56,56,0,0,0-1.45,6q-1.35,7.34,0,9.85t7.52,2.43h7.33l2.13-11.49c0-.44.3-.66.82-.66h3.13q.67,0,.63.66l-2.27,12.5a1.55,1.55,0,0,1-.34.83c-.38.59-1.38,1-3,1.35a32.13,32.13,0,0,1-4.24.46c-1.61.05-3.25.08-4.92.08a26.47,26.47,0,0,1-7.13-.75,7.74,7.74,0,0,1-4-2.6,8.38,8.38,0,0,1-1.37-4.93,39,39,0,0,1,.75-7.73,42.94,42.94,0,0,1,2-7.8,13,13,0,0,1,3.23-4.9,11,11,0,0,1,4.87-2.68A30,30,0,0,1,1351.89,346.76Z"/><path class="cls-1" d="M1383.48,355.56c4.31,0,7,.74,8.15,2.23s1.36,4.4.62,8.84l-.24,1.21a1.22,1.22,0,0,1-.5.93,3,3,0,0,1-1.43.25H1374.7c-.38,2.57-.24,4.27.44,5.11s2.29,1.26,4.87,1.26h7.9c.49,0,.69.21.63.63l-.39,1.84c-.06.39-.33.62-.82.67a71.33,71.33,0,0,1-8.1.38,17.84,17.84,0,0,1-6.7-.92q-4.1-1.94-2.17-10.73,1.31-7,3.86-9.39T1383.48,355.56Zm-.63,3.52q-3.86,0-5.3,1.35c-1,.89-1.76,2.67-2.27,5.32h12.44c.45-2.71.37-4.49-.24-5.32S1385.29,359.08,1382.85,359.08Z"/><path class="cls-1" d="M1415.59,355.56c1.58,0,2.85.05,3.81.13q3.61.21,4.77,1.47,2,2,.82,8.21l-2.31,12.7c-.07.42-.37.63-.92.63h-3.08q-.72,0-.63-.63l2.27-12.36a13.17,13.17,0,0,0,.14-5.07,1.55,1.55,0,0,0-1-1.05,10.71,10.71,0,0,0-4-.51h-6.61l-3.47,19c0,.42-.31.63-.82.63h-3.18q-.67,0-.63-.63l3.86-21.16a.82.82,0,0,1,.17-.4.57.57,0,0,1,.24-.19,2.19,2.19,0,0,1,.41-.09A64.82,64.82,0,0,1,1415.59,355.56Z"/><path class="cls-1" d="M1448.72,355.56c4.31,0,7,.74,8.15,2.23s1.36,4.4.62,8.84l-.24,1.21a1.22,1.22,0,0,1-.5.93,3,3,0,0,1-1.43.25h-15.38c-.38,2.57-.24,4.27.44,5.11s2.29,1.26,4.87,1.26h7.9q.74,0,.63.63l-.38,1.84a.81.81,0,0,1-.82.67,71.64,71.64,0,0,1-8.11.38,17.84,17.84,0,0,1-6.7-.92q-4.1-1.94-2.17-10.73,1.31-7,3.86-9.39T1448.72,355.56Zm-.63,3.52q-3.85,0-5.3,1.35c-1,.89-1.75,2.67-2.27,5.32H1453c.45-2.71.37-4.49-.24-5.32S1450.53,359.08,1448.09,359.08Z"/><path class="cls-1" d="M1477.7,355.56a20.88,20.88,0,0,1,5.3.46c.42.12.61.35.58.72l-.34,1.76c0,.45-.32.64-.87.58h-4.19a8.52,8.52,0,0,0-3.4.47,2.33,2.33,0,0,0-1.18,1.88l-3,16.64a.78.78,0,0,1-.87.63h-3.13q-.72,0-.63-.63l3.18-17.6a5,5,0,0,1,3.62-4.24A18.41,18.41,0,0,1,1477.7,355.56Z"/><path class="cls-1" d="M1500.89,355.56q5.68,0,8,1.58t1.71,5l-2.7,14.67c0,.56-.4,1-1.11,1.18q-3,.92-10.9.92-5,0-6.94-1.34c-1.25-.92-1.64-2.73-1.16-5.41a7.15,7.15,0,0,1,3-5,12.82,12.82,0,0,1,6.75-1.46l7.77,0,.53-2.81a2.65,2.65,0,0,0-1-2.89c-.86-.59-2.41-.89-4.63-.89H1493a.83.83,0,0,1-.55-.12.6.6,0,0,1-.07-.5l.38-1.72c0-.37.29-.59.77-.67A50.52,50.52,0,0,1,1500.89,355.56Zm2.75,19.41,1.11-6h-7.67a5.81,5.81,0,0,0-3.2.72,3.54,3.54,0,0,0-1.43,2.43c-.25,1.31,0,2.21.7,2.68s2.13.71,4.22.71A30.51,30.51,0,0,0,1503.64,375Z"/><path class="cls-1" d="M1526.5,350.12l3.28-.68c.57-.11.81.07.72.55l-1.11,5.83h5.11c.48,0,.69.2.63.62l-.39,2c-.06.42-.34.63-.82.63h-5.11l-2.56,14.09c-.16.92-.07,1.53.27,1.82a4.29,4.29,0,0,0,2.44.44h2.31c.51,0,.74.2.67.59l-.33,2a1,1,0,0,1-.87.67,13.36,13.36,0,0,1-2.75.25,16.24,16.24,0,0,1-4.82-.59q-2.37-.79-1.69-4.19l2.7-15.09h-2.7q-.72,0-.63-.63l.39-2c.06-.42.34-.62.82-.62h2.75l.87-5A.91.91,0,0,1,1526.5,350.12Z"/><path class="cls-1" d="M1555.62,355.56q5.49,0,7.67,1.43a4.9,4.9,0,0,1,2,3.62,23.36,23.36,0,0,1-.56,6.65,34.54,34.54,0,0,1-1.51,5.93,8.78,8.78,0,0,1-2.29,3.37,8.13,8.13,0,0,1-3.64,1.85,27.32,27.32,0,0,1-5.86.5q-6.86,0-8.68-2.26t-.44-9.39a34.42,34.42,0,0,1,1.55-5.89,9.21,9.21,0,0,1,2.26-3.42,7.89,7.89,0,0,1,3.64-1.88A26.78,26.78,0,0,1,1555.62,355.56Zm-.63,3.52q-4.29,0-5.74,1.56t-2.36,6.62c-.67,3.27-.71,5.43-.09,6.5s2.34,1.63,5.2,1.63a15,15,0,0,0,3.69-.34,4,4,0,0,0,2.1-1.29,7.24,7.24,0,0,0,1.33-2.35,31.74,31.74,0,0,0,.94-4.15c.7-3.24.74-5.42.09-6.54S1557.79,359.08,1555,359.08Z"/><path class="cls-1" d="M1585.61,355.56a21,21,0,0,1,5.31.46c.41.12.61.35.58.72l-.34,1.76c0,.45-.32.64-.87.58h-4.2a8.52,8.52,0,0,0-3.4.47,2.35,2.35,0,0,0-1.18,1.88l-3,16.64a.79.79,0,0,1-.87.63h-3.14c-.48,0-.69-.21-.62-.63l3.18-17.6a5,5,0,0,1,3.62-4.24A18.34,18.34,0,0,1,1585.61,355.56Z"/><path class="cls-2" d="M239.23,125.09c5-3.38,10.76-7.32,15.69-10.67a3.05,3.05,0,0,1,3.9.38c3.93,4,8,8.08,12.16,12.25a3.07,3.07,0,0,1-.45,4.73L254,142.84a3.09,3.09,0,0,1-4-.51l-11.35-12.66A3.05,3.05,0,0,1,239.23,125.09Z"/><path class="cls-3" d="M209.56,109.47c4.95-4.9,10.61-10.51,15.34-15.18a3,3,0,0,1,3.3-.67L249,102.09a3.08,3.08,0,0,1,1,5c-5.16,5.16-11.12,11.1-16.08,16.08a3.08,3.08,0,0,1-3.48.6l-20-9.36A3.06,3.06,0,0,1,209.56,109.47Z"/><path class="cls-4" d="M170.21,100q7.62-9.48,15.23-18.84a3,3,0,0,1,2.9-1.09q13.54,2.34,28.07,4.8a3.07,3.07,0,0,1,1.91,4.92q-7.92,10-15.92,20.19a3.07,3.07,0,0,1-3.09,1.1q-14.2-3.15-27.4-6.15A3.08,3.08,0,0,1,170.21,100Z"/><path class="cls-5" d="M191.91,139.47c2.77-4,5.84-8.37,8.48-12.13a3,3,0,0,1,3-1.22l18.53,3.41a3,3,0,0,1,2,4.67c-2.82,4.13-5.95,8.74-8.7,12.7a3,3,0,0,1-3.14,1.23l-18.31-4A3,3,0,0,1,191.91,139.47Z"/><path class="cls-6" d="M153.27,140.8c2.08-4.88,4.4-10.27,6.35-14.8a3,3,0,0,1,2.51-1.84q12.52-1.22,25.66-2.46a3.08,3.08,0,0,1,3.16,4.19c-2,5-4.25,10.64-6.17,15.52a3.09,3.09,0,0,1-2.66,1.93q-13.26.9-25.84,1.73A3.07,3.07,0,0,1,153.27,140.8Z"/><path class="cls-7" d="M107,150.73c1.75-6.07,3.46-12.06,5.15-17.93a3,3,0,0,1,2.19-2.12q15.69-3.93,32.23-8a3.07,3.07,0,0,1,3.73,3.69q-2.22,9.12-4.51,18.58a3.12,3.12,0,0,1-2.33,2.29q-16.84,3.78-32.85,7.38A3.07,3.07,0,0,1,107,150.73Z"/><path class="cls-8" d="M151.66,169.35c.56-3.6,1.14-7.44,1.68-10.78a3.06,3.06,0,0,1,2.27-2.5l21.44-5.57a3.09,3.09,0,0,1,3.86,3.36c-.44,3.62-.92,7.57-1.34,11.07a3.12,3.12,0,0,1-2.36,2.64l-21.77,5.26A3.09,3.09,0,0,1,151.66,169.35Z"/><path class="cls-9" d="M111.35,188.26c-.47-4.27-1-8.89-1.4-12.84a3.06,3.06,0,0,1,1.68-3.1q13.23-6.65,26.84-13.41a3.1,3.1,0,0,1,4.44,2.25c.7,4.11,1.47,8.73,2.16,12.82a3.09,3.09,0,0,1-1.71,3.3q-14,6.76-27.59,13.42A3.08,3.08,0,0,1,111.35,188.26Z"/><path class="cls-10" d="M65.27,218.24c-1.35-5.4-2.64-10.67-3.92-15.85a3.08,3.08,0,0,1,1.28-3.3q16.14-10.78,32.68-21.79a3.09,3.09,0,0,1,4.64,1.55q2.6,7.46,5.35,15.21a3.11,3.11,0,0,1-1.23,3.64Q86.78,209,70,220.08A3.09,3.09,0,0,1,65.27,218.24Z"/><path class="cls-11" d="M126,210.62c-1.36-2.83-2.86-5.87-4.19-8.57a3.08,3.08,0,0,1,1-3.9c6.86-4.79,13.73-9.6,20.67-14.43a3.11,3.11,0,0,1,4.47,1l4.74,8.33a3.09,3.09,0,0,1-.93,4.07q-10.63,7.35-21.21,14.69A3.1,3.1,0,0,1,126,210.62Z"/><path class="cls-12" d="M92.21,245.58c-3-3.12-6.32-6.59-9.19-9.57a3.09,3.09,0,0,1,0-4.29q11.66-12.14,23.27-24.13a3.1,3.1,0,0,1,4.26-.18l10,8.68a3.09,3.09,0,0,1,.19,4.48q-12,12.5-24,25A3.08,3.08,0,0,1,92.21,245.58Z"/><path class="cls-13" d="M55,295.39q-7.57-5.91-14.74-11.49a3.09,3.09,0,0,1-.53-4.31q14-18.36,27.7-36.35a3.09,3.09,0,0,1,4.07-.76c5.08,3.13,10.29,6.32,15.62,9.62a3.11,3.11,0,0,1,.86,4.49Q73.83,275.43,59.39,294.8A3.12,3.12,0,0,1,55,295.39Z"/><path class="cls-14" d="M122.44,255.24,112,250.34a3.1,3.1,0,0,1-1.24-4.56q7.49-11,14.86-21.7a3.06,3.06,0,0,1,3.68-1.13l10.65,4.23a3.1,3.1,0,0,1,1.43,4.6q-7.44,11.07-15,22.37A3.1,3.1,0,0,1,122.44,255.24Z"/><path class="cls-15" d="M104.13,302c-5.77-.95-12.42-2-18.15-2.93a3.1,3.1,0,0,1-2.38-4.24Q90.43,278,97.05,262a3.08,3.08,0,0,1,3.15-1.9c5.47.53,12,1.18,17.89,1.74a3.08,3.08,0,0,1,2.58,4.19c-4.3,11.08-8.67,22.37-13.15,33.95A3.13,3.13,0,0,1,104.13,302Z"/><path class="cls-16" d="M89.43,368.4l-28.28-1a3.12,3.12,0,0,1-2.89-3.89q6.68-25.83,13-49.91a3.05,3.05,0,0,1,2.84-2.29q13.06-.59,26.78-1.14a3.11,3.11,0,0,1,3.16,3.77q-5.62,25-11.51,52A3.12,3.12,0,0,1,89.43,368.4Z"/><path class="cls-17" d="M144.77,292.44c-5.3.64-11.42,1.41-16.72,2.07a3.11,3.11,0,0,1-3.44-3.56q2-13.05,4-25.6a3.09,3.09,0,0,1,2.58-2.57l16-2.5a3.08,3.08,0,0,1,3.55,3.44c-1.09,8.5-2.22,17.16-3.33,26A3.11,3.11,0,0,1,144.77,292.44Z"/><path class="cls-18" d="M152.37,342.83l-25.62,9.49a3.11,3.11,0,0,1-4.14-2.56c-1.53-12.76-2.93-25.07-4.29-36.93a3.08,3.08,0,0,1,1.93-3.22c7.29-2.93,16.18-6.51,23.85-9.63a3.08,3.08,0,0,1,4.21,2.38c1.89,11.9,3.92,24.22,6,37.05A3.11,3.11,0,0,1,152.37,342.83Z"/><path class="cls-19" d="M178.14,413.29C165.63,420.16,153.27,427,141,433.64a3.1,3.1,0,0,1-4.44-1.86q-9.08-30.37-17-57.36a3.06,3.06,0,0,1,1.42-3.53q16.59-9.56,33.41-19.32a3.1,3.1,0,0,1,4.47,1.6q9.66,26.44,20.67,56.32A3.11,3.11,0,0,1,178.14,413.29Z"/><path class="cls-20" d="M191.72,310.79c-5.92,3.9-12.88,8.51-18.8,12.37a3.1,3.1,0,0,1-4.48-1.29q-5.82-12.35-11.34-24a3.08,3.08,0,0,1,1.07-3.89c5.51-3.68,12.05-8.08,17.66-11.81a3.08,3.08,0,0,1,4.44,1.12q6,11.4,12.46,23.45A3.09,3.09,0,0,1,191.72,310.79Z"/><path class="cls-21" d="M231.82,349.59C224.66,357.44,215.9,367,208.74,375a3.1,3.1,0,0,1-4.56,0Q188.91,358.92,175,344.2a3.08,3.08,0,0,1,0-4.22c6.73-7.28,14.84-16.1,21.59-23.34a3.07,3.07,0,0,1,4.36-.16c9.79,9.11,20,18.72,30.71,28.76A3.11,3.11,0,0,1,231.82,349.59Z"/><path class="cls-22" d="M305.35,395.71c-8.78,14.89-17.49,30.05-26.35,45.43a3.12,3.12,0,0,1-4.55.93c-20.74-15.44-40.14-29.8-58.32-43.3a3.09,3.09,0,0,1-.76-4.13q12.6-20.14,25-39.76a3.08,3.08,0,0,1,4.26-1q27.91,17.68,59.72,37.6A3.1,3.1,0,0,1,305.35,395.71Z"/><path class="cls-23" d="M253,300.36c-3.82,6.59-8.25,14.45-12.05,21a3.08,3.08,0,0,1-4,1.21c-9.7-4.79-19.08-9.54-28.17-14.08a3.06,3.06,0,0,1-1.25-4.32c3.76-6.22,8.11-13.55,11.74-19.67a3,3,0,0,1,3.89-1.23c9.21,4.15,18.68,8.34,28.45,12.71A3.06,3.06,0,0,1,253,300.36Z"/><path class="cls-24" d="M317.8,309.88c-2,10.46-4.45,23.38-6.44,34.22a3.07,3.07,0,0,1-3.59,2.46c-17.75-3.28-34.7-6.48-51-9.43a3.06,3.06,0,0,1-2.44-3.72c2.4-10.12,5.31-22,7.63-31.67a3,3,0,0,1,3.39-2.32l49.89,6.85A3.07,3.07,0,0,1,317.8,309.88Z"/><path class="cls-25" d="M416.21,307.63q2.84,24.57,5.89,51a3.09,3.09,0,0,1-3.16,3.44q-44.79-1.4-85.09-2.54a3.08,3.08,0,0,1-3-3q-.67-24.39-1.25-47.08a3.05,3.05,0,0,1,3-3.14q38.17-.69,80.47-1.39A3.07,3.07,0,0,1,416.21,307.63Z"/><path class="cls-26" d="M307.39,260.16c.48,6.81,1.08,14.93,1.59,22a3.09,3.09,0,0,1-2.79,3.27c-12.88,1.24-25.44,2.41-37.69,3.61a3,3,0,0,1-3.36-3c-.11-6.82-.26-14.67-.35-21.18a3.05,3.05,0,0,1,2.68-3.08c11.9-1.47,24-2.93,36.48-4.44A3.07,3.07,0,0,1,307.39,260.16Z"/><path class="cls-27" d="M372.52,236.26c4.69,8.42,10.52,18.94,15.47,28a3.07,3.07,0,0,1-1.72,4.37q-27.07,9.24-53.08,18.22a3.06,3.06,0,0,1-3.8-1.66c-3.95-8.94-8.59-19.41-12.44-27.89a3.06,3.06,0,0,1,1.73-4.14c16.37-6,33-12.13,50.1-18.33A3.07,3.07,0,0,1,372.52,236.26Z"/><path class="cls-28" d="M452.67,192.93c11.52,10.31,23.75,21.08,36.47,32.35a3.09,3.09,0,0,1-.66,5.06c-24.22,12.12-47.86,24-71,35.79a3.07,3.07,0,0,1-3.68-.68q-16-17.64-30.49-33.81a3.06,3.06,0,0,1,.85-4.75Q416,210,449.2,192.51A3,3,0,0,1,452.67,192.93Z"/><path class="cls-29" d="M332.56,205c4.42,4.5,9.81,9.93,14.48,14.75a3.07,3.07,0,0,1-.61,4.74q-16.11,9.93-32,19.87a3.07,3.07,0,0,1-4-.62c-4.15-4.89-9-10.53-13-15.32a3.05,3.05,0,0,1,.71-4.56l30.6-19.3A3.08,3.08,0,0,1,332.56,205Z"/><path class="cls-30" d="M374,162.37l29.2,12.56a3.06,3.06,0,0,1,1,4.95q-16.2,16.65-32.48,33.46a3.06,3.06,0,0,1-3.6.6c-8.75-4.49-19.13-9.86-27.61-14.23a3.07,3.07,0,0,1-.79-4.86q15.42-16,30.9-31.8A3.06,3.06,0,0,1,374,162.37Z"/><path class="cls-31" d="M411.67,106.64q21.66,3.56,45.15,7.41a3.07,3.07,0,0,1,2.09,4.72q-15,22.76-30.34,46.06a3.09,3.09,0,0,1-3.29,1.31q-23-5.49-44.25-10.59a3.07,3.07,0,0,1-1.8-4.73q14.92-21.8,29.43-42.89A3,3,0,0,1,411.67,106.64Z"/><path class="cls-32" d="M322,157.18c6.36,1.26,14.16,2.81,21,4.2a3.06,3.06,0,0,1,2,4.58c-5,8.35-10.13,16.8-15.25,25.34a3.07,3.07,0,0,1-3.37,1.4c-6.6-1.63-14.32-3.55-20.91-5.21a3.07,3.07,0,0,1-1.83-4.61c5.12-8.17,10.14-16.28,15.13-24.31A3.09,3.09,0,0,1,322,157.18Z"/><path class="cls-33" d="M333,114.52c9.26-.73,20.77-1.56,30.69-2.31a3,3,0,0,1,3.23,3.67c-2.12,10.2-4.3,20.6-6.44,31.24a3.06,3.06,0,0,1-2.88,2.47c-10.05.37-21.89.75-31.64,1.12a3.08,3.08,0,0,1-3.09-3.82q3.79-15.36,7.39-30A3.08,3.08,0,0,1,333,114.52Z"/><path class="cls-34" d="M333.07,68.31l38.13-9.43A3.08,3.08,0,0,1,375,61.64q1.14,16.78,2.43,34.69A3.1,3.1,0,0,1,375,99.57q-20.82,4.28-40.6,8.37a3.07,3.07,0,0,1-3.68-3q0-17.37.05-33.64A3,3,0,0,1,333.07,68.31Z"/><path class="cls-35" d="M286.08,130c6.42-1.57,14.14-3.49,20.88-5.11a3.05,3.05,0,0,1,3.77,2.79c.41,6.76.82,13.68,1.29,20.75a3.07,3.07,0,0,1-2.4,3.21l-21.72,4.73a3.08,3.08,0,0,1-3.72-3c-.14-6.93-.28-13.7-.43-20.36A3.08,3.08,0,0,1,286.08,130Z"/><path class="cls-36" d="M272.62,98.7c7.6-3.61,16.78-8,24.51-11.71a3.07,3.07,0,0,1,4,1.28c3.6,6.53,7.38,13.29,11.27,20.24a3.08,3.08,0,0,1-1.39,4.3l-26.16,11.92a3.08,3.08,0,0,1-4.05-1.51l-9.65-20.45A3.05,3.05,0,0,1,272.62,98.7Z"/><path class="cls-37" d="M248,70.17Q261.27,61.68,274.83,53a3.06,3.06,0,0,1,3.79.37q9.33,9,19.5,18.69a3.08,3.08,0,0,1-.48,4.85Q283,86,268.64,95a3.08,3.08,0,0,1-3.92-.58c-6.05-6.79-11.83-13.32-17.42-19.62A3.07,3.07,0,0,1,248,70.17Z"/></svg>